<svg xmlns="http://www.w3.org/2000/svg" width="16" height="16" fill="none"><path fill="#80CBC4" d="M9.014 2.8H12.8A2.2 2.2 0 0 1 15 5v.022a1.6 1.6 0 0 0-.648-.154l-.126.002c-.294.015-.579.11-.822.274l-.101.074-.007.005q-.17.138-.296.314V5a.2.2 0 0 0-.2-.2H8.186L6.386 3H3.2a.2.2 0 0 0-.2.2V11c0 .11.09.2.2.2h2.592q.022.098.048.195A3.58 3.58 0 0 0 7.045 13.2H3.2A2.2 2.2 0 0 1 1 11V3.2A2.2 2.2 0 0 1 3.2 1h4.015zm5.28 3.367a.322.322 0 0 1 .318.202l.388 1.01V11a2.2 2.2 0 0 1-2.2 2.2H9.207l-1.287-.963-.011-.009-.005-.003a2.3 2.3 0 0 1-.762-1.025H12.8a.2.2 0 0 0 .2-.2V8.934h.174L14 6.403a.32.32 0 0 1 .294-.236"/><path fill="#80CBC4" d="m15.849 9.594-.013-.032-1.223-3.193a.32.32 0 0 0-.318-.202.32.32 0 0 0-.294.235l-.827 2.532H9.827L9 6.402a.32.32 0 0 0-.294-.235.32.32 0 0 0-.318.202L7.163 9.566l-.013.032a2.28 2.28 0 0 0 .754 2.627l.004.003.011.008 1.866 1.397.923.699.56.425a.38.38 0 0 0 .458 0l.561-.425.923-.699 1.877-1.405.005-.004a2.276 2.276 0 0 0 .757-2.63"/><path fill="#80CBC4" d="m15.849 9.594-.013-.032a4.15 4.15 0 0 0-1.647.74l-2.687 2.037 1.714 1.294 1.877-1.405.005-.004a2.276 2.276 0 0 0 .75-2.63M9.787 13.633l.92.699.562.425a.38.38 0 0 0 .457 0l.561-.425.923-.699-1.713-1.294z"/><path fill="#80CBC4" d="M8.81 10.304a4.1 4.1 0 0 0-1.647-.74l-.013.032a2.276 2.276 0 0 0 .754 2.629l.004.003.011.008 1.866 1.397 1.717-1.294z"/></svg>