<svg xmlns="http://www.w3.org/2000/svg" width="16" height="16" fill="none"><path fill="#4A616C" d="M9.015 2.8H12.8A2.2 2.2 0 0 1 15 5v1.034l-3.337-1.936a2 2 0 0 0-2.026 0l-1.21.702h-.241L6.386 3H3.2a.2.2 0 0 0-.2.2V11c0 .11.09.2.2.2H5v.968a2 2 0 0 0 .266 1.007l.015.025h-2.08A2.2 2.2 0 0 1 1 11V3.2A2.2 2.2 0 0 1 3.2 1h4.014z"/><path fill="#2ECC71" d="M10.639 5.65a.48.48 0 0 1 .483 0l3.637 2.11a.48.48 0 0 1 .241.422v4.221a.48.48 0 0 1-.241.421l-3.637 2.11a.48.48 0 0 1-.483 0l-3.636-2.11a.48.48 0 0 1-.242-.42V8.181a.48.48 0 0 1 .242-.421zm1.614 2.288c-.189 0-.348.185-.385.426l-.009.107v2.65l-1.642-2.665-.12-.193c-.134-.21-.33-.328-.534-.325-.262 0-.448.235-.448.518v3.657c0 .292.177.533.393.533.189 0 .349-.184.386-.425l.007-.108V9.465l1.762 2.856c.135.21.331.328.536.324.262 0 .447-.234.447-.517V8.47c0-.292-.178-.533-.393-.533"/></svg>