<svg xmlns="http://www.w3.org/2000/svg" width="16" height="16" fill="none"><path fill="#303236" d="M9.014 2.8H12.8A2.2 2.2 0 0 1 15 5v1.954a3.1 3.1 0 0 0-1.333-.298 4 4 0 0 0-.667.058V5a.2.2 0 0 0-.2-.2H8.604a1.7 1.7 0 0 0-.354-.038h-.012l-.05-.118-.047.111L6.385 3H3.2a.2.2 0 0 0-.2.2V11c0 .11.09.2.2.2h1.114l-.184.437a1.67 1.67 0 0 0 .145 1.563H3.2A2.2 2.2 0 0 1 1 11V3.2A2.2 2.2 0 0 1 3.2 1h4.014zm.007 9.773.15.355.073.154q.034.06.072.117H7.061q.084-.127.145-.271l.15-.355zm1.559.208-.05-.015q.024.008.05.015m-.3-.209"/><path fill="#8472F3" fill-rule="evenodd" d="M8.037 5.826a.52.52 0 0 0-.476.316l-2.459 5.854a.516.516 0 1 0 .953.4l.445-1.061h3.196l.446 1.06a.516.516 0 1 0 .952-.4L8.636 6.143a.52.52 0 0 0-.477-.316zm1.225 4.476L8.098 7.53l-1.164 2.772z" clip-rule="evenodd"/><path fill="#89DDFF" fill-rule="evenodd" d="M12.66 9.091c.208-.223.528-.339.917-.339.425 0 .784.28.907.66a.18.18 0 0 1-.143.176l-1.566.275a1.437 1.437 0 0 0 .268 2.85h.11a2.4 2.4 0 0 0 1.383-.437.517.517 0 0 0 1.027-.08V9.703a2 2 0 0 0-.081-.563 1.99 1.99 0 0 0-1.905-1.42c-.58 0-1.212.173-1.673.666a.516.516 0 1 0 .755.705m.305 1.788 1.531-.27a1.38 1.38 0 0 1-1.342 1.07h-.111a.404.404 0 0 1-.078-.8" clip-rule="evenodd" opacity=".6"/></svg>