<svg xmlns="http://www.w3.org/2000/svg" width="16" height="16" fill="none"><g clip-path="url(#a)"><path fill="#4A616C" d="M9.014 2.8H12.8A2.2 2.2 0 0 1 15 5v3.637h-1.204q-.04-.055-.08-.109l-.183-.199-.201-.182V5.952c0-.352-.12-.691-.334-.966a.2.2 0 0 0-.164-.182l-.025-.025a1.57 1.57 0 0 0-.955-.453l-.154-.007h-.747a1.57 1.57 0 0 0-.995.355l-.114.105-.021.02H8.185L6.385 3H3.2A.2.2 0 0 0 3 3.2V11c0 .11.09.2.2.2h1.132c.042.347.198.672.447.92l.063.064.115.104c.279.229.63.356.995.356h.795q-.076.196-.099.407l-.007.149H3.2A2.2 2.2 0 0 1 1 11V3.2A2.2 2.2 0 0 1 3.2 1h4.015zm5.229 9.857.006-.013h.009z"/><path fill="#89DDFF" d="M8.937 13.939h-.104l-.511-.516v-.104l.783-.774h.543l.068.068v.543l-.774.783zm-.615-5.762v-.095l.511-.511h.104l.774.773v.544l-.068.067H9.1zm4.508 4.114h-.747l-.063-.059V10.5c0-.308-.123-.543-.498-.557-.19 0-.408 0-.648.01l-.031.035v2.245l-.063.064h-.752l-.059-.064v-2.96l.06-.063h1.674a1.177 1.177 0 0 1 1.181 1.177v1.846l-.059.064zM9.04 11.187H6.063L6 11.123v-.742l.063-.063h2.978l.064.063v.742zm7.758 0h-2.978l-.063-.064v-.742l.063-.063h2.978l.063.063v.742zm-5.798-2.901V6.063L11.065 6h.746l.064.063v2.218l-.064.063h-.746zm0 7.155v-2.218l.064-.063h.746l.064.059v2.222l-.064.064h-.746z"/></g><defs><clipPath id="a"><path fill="#fff" d="M0 0h16v16H0z"/></clipPath></defs></svg>