<svg xmlns="http://www.w3.org/2000/svg" width="16" height="16" fill="none"><path fill="#4A616C" d="M9.014 2.8H12.8c.957 0 1.768.612 2.07 1.465a1.7 1.7 0 0 0-1.047.485 3.93 3.93 0 0 0-2.688.05H8.186L6.386 3H3.2a.2.2 0 0 0-.2.2V11c0 .11.09.2.2.2H5.55a3.9 3.9 0 0 0 .197 1.626q-.167.172-.277.374H3.2A2.2 2.2 0 0 1 1 11V3.2A2.2 2.2 0 0 1 3.2 1h4.014zm5.925 8.706a2.2 2.2 0 0 1-2.11 1.692 2.3 2.3 0 0 0-.05-1.163q.145-.15.247-.321a2.28 2.28 0 0 0 1.913-.208m-7.545 1.66-.012-.016q-.008-.013-.02-.027zm-.533-1.258-.01-.073zm3.613-.708.063.063.589.59zm-3.634.487-.003-.087zm-.002-.223.005-.11zm6.863-.93-.033-.003zm.156-.003-.01.001zm-.331-.023-.019-.005zm.5-.009-.015.004z"/><path fill="#AEE33E" fill-rule="evenodd" d="M15.322 5.678a.417.417 0 0 1 0 .589l-.65.65c.74 1.023.649 2.46-.272 3.381a.976.976 0 0 1-1.329-.046l-2.323-2.323a.975.975 0 0 1-.046-1.33 2.616 2.616 0 0 1 3.38-.27l.651-.651a.417.417 0 0 1 .59 0" clip-rule="evenodd" opacity=".6"/><path fill="#AEE33E" d="M7.329 13.082a2.6 2.6 0 0 0 .589.59l-.651.65a.417.417 0 0 1-.59-.589z"/><path fill="#AEE33E" fill-rule="evenodd" d="M8.975 9.702a.97.97 0 0 0-1.375 0 2.616 2.616 0 0 0 3.698 3.698.97.97 0 0 0 0-1.375z" clip-rule="evenodd"/><path fill="#AEE33E" d="m11.126 11.852-.59-.589.725-.724a.417.417 0 0 1 .59.589zM10.461 9.15a.417.417 0 0 1 0 .59l-.724.723-.59-.589.725-.724a.417.417 0 0 1 .59 0"/></svg>