<svg xmlns="http://www.w3.org/2000/svg" width="16" height="16" fill="none"><path fill="#80CBC4" d="M9.014 2.8H12.8A2.2 2.2 0 0 1 15 5v.691l-2.992-1.467a2 2 0 0 0-.718-.237l-.264-.016c-.305 0-.654.067-.983.253L8.87 4.8h-.684L6.386 3H3.2a.2.2 0 0 0-.2.2V11c0 .11.09.2.2.2H5v1.427q.002.308.09.573H3.2A2.2 2.2 0 0 1 1 11V3.2A2.2 2.2 0 0 1 3.2 1h4.014zM6.647 12.96l-.009-.006zm-.079-.073-.01-.014zm-.06-.091-.006-.019z"/><path fill="#80CBC4" d="M11.026 5.441c.107 0 .208.026.29.08l3.999 1.963a.44.44 0 0 1 .267.389v4.754a.44.44 0 0 1-.268.39l-3.999 1.962a.53.53 0 0 1-.289.08.53.53 0 0 1-.289-.08l-3.999-1.962a.44.44 0 0 1-.267-.39V7.873c0-.168.106-.314.267-.389l4-1.964a.53.53 0 0 1 .288-.079M7.483 8.134v4.232l3.543 1.742 3.543-1.742v-.238h-.008V9.064h.008v-.93l-3.543-1.742z"/><path fill="#80CBC4" d="M10.52 10.58v2.356l-2.025-1.02V9.557zm3.037 1.335-2.024 1.02V10.58l2.024-1.021zm-.05-3.352-2.48 1.252-2.48-1.252 2.48-1.251z" opacity=".7"/></svg>