<svg xmlns="http://www.w3.org/2000/svg" width="16" height="16" fill="none"><g clip-path="url(#a)"><path fill="#4A616C" d="M9.015 2.8H12.8A2.2 2.2 0 0 1 15 5v.024A6.47 6.47 0 0 0 11.5 4a6.5 6.5 0 0 0-3.126.8h-.188L6.386 3H3.2a.2.2 0 0 0-.2.2V11c0 .11.09.2.2.2h1.838c.076.707.265 1.38.549 2H3.2A2.2 2.2 0 0 1 1 11V3.2A2.2 2.2 0 0 1 3.2 1h4.014z"/><path fill="#6B7394" d="M13.791 13.93a4.127 4.127 0 0 1-6.416-3.43A4.127 4.127 0 0 1 11.5 6.375a4.127 4.127 0 0 1 4.125 4.125 4.12 4.12 0 0 1-1.398 3.094L10.544 8.85H9.85v3.299h.555V9.555zm-1.145-2.933.55.708V8.85h-.55z"/></g><defs><clipPath id="a"><path fill="#fff" d="M0 0h16v16H0z"/></clipPath></defs></svg>