<svg xmlns="http://www.w3.org/2000/svg" width="16" height="16" fill="none"><path fill="#80CBC4" d="M9.014 2.8H12.8c.916 0 1.7.56 2.03 1.356A2.8 2.8 0 0 0 13.916 4l-.286.014a2.8 2.8 0 0 0-1.683.786h-3.76L6.386 3H3.2a.2.2 0 0 0-.2.2V11c0 .11.09.2.2.2h1.96a2.78 2.78 0 0 0-.63 1.496l-.015.288v.013q.001.102.01.203H3.2A2.2 2.2 0 0 1 1 11V3.2A2.2 2.2 0 0 1 3.2 1h4.014zM5.92 12.696l-.022.141a1 1 0 0 1 .022-.141m.104-.31.04-.083zm.636-.667.063-.03zm1.138-.085q.033.01.065.023-.032-.012-.065-.023m-.263-.063.07.01zm-.068-.01h-.003l-.133-.006q.069 0 .136.007m2.212-.361-.143.045q-.019-.023-.038-.045zM15 10.77q-.07-.006-.141-.007l-.057.004q.105-.21.198-.422zm-.77-2.559-.037.179q.02-.092.035-.18l.089-.023q-.043.014-.088.024m-.665-.01-.046-.012zm.901-.065q-.036.014-.074.026.038-.011.074-.026m-1.265-.08-.03-.018zm1.496-.041q-.03.02-.063.037.032-.018.063-.037m.212-.167-.057.052zm.09-.094"/><path fill="#80CBC4" d="M14.935 14.096a.91.91 0 0 1-.86-.628H8.772v-.035q-.363.033-.75.035V12.9q.39-.002.75-.036v-.025h.233c1.903-.238 3.202-1.183 4.018-2.631a6.8 6.8 0 0 0 .704-1.87 7 7 0 0 0 .127-.836l.555.028q-.003.078-.025.265a7 7 0 0 1-.115.669c-.153.69-.4 1.38-.764 2.027-.582 1.033-1.394 1.837-2.455 2.348h3.025a.915.915 0 0 1 .86-.628c.503 0 .912.422.912.942s-.409.941-.912.941" opacity=".6"/><path fill="#80CBC4" d="M13.989 8.32c-.795 0-1.44-.64-1.44-1.428v-.015c0-.79.643-1.428 1.44-1.428.795 0 1.44.64 1.44 1.428v.015c0 .79-.643 1.427-1.44 1.427m0-.818a.61.61 0 0 0 .617-.61v-.015a.614.614 0 0 0-.617-.61.61.61 0 0 0-.617.61v.015c0 .336.276.61.617.61M7.404 14.5c-.794 0-1.44-.639-1.44-1.427v-.015c0-.79.643-1.428 1.44-1.428.795 0 1.44.64 1.44 1.428v.015c0 .79-.643 1.427-1.44 1.427m0-.817a.61.61 0 0 0 .617-.61v-.015a.614.614 0 0 0-.617-.61.61.61 0 0 0-.617.61v.015c0 .336.276.61.617.61"/></svg>