<svg xmlns="http://www.w3.org/2000/svg" width="16" height="16" fill="none"><path fill="#80CBC4" d="M9.015 2.8H12.8A2.2 2.2 0 0 1 15 5v3.151l-.125-.04a2.28 2.28 0 0 0-.475-1.647l-.004-.006-.004-.006A2.13 2.13 0 0 0 13 5.678V5a.2.2 0 0 0-.2-.2H8.186L6.386 3H3.2a.2.2 0 0 0-.2.2V11c0 .11.09.2.2.2h2.848q-.179.361-.284.748c-.11.413-.119.842-.033 1.252h-2.53A2.2 2.2 0 0 1 1 11V3.2A2.2 2.2 0 0 1 3.2 1h4.014zm3.418 8.4a5 5 0 0 1 .3.977c.068.344.095.691.077 1.022l-.01.001H6.98a1.5 1.5 0 0 1-.057-.941c.097-.363.28-.722.517-1.059zm1.894 1.381a2 2 0 0 1-.316.254c-.003-.077-.003-.155-.009-.232q.163 0 .325-.022m-.434-3.306a1.11 1.11 0 0 1 .823.053q.167.096.284.248v1.277a1.15 1.15 0 0 1-1.223.525l-.007-.002a.92.92 0 0 1-.65-.669 1.18 1.18 0 0 1 .14-.901 1.1 1.1 0 0 1 .633-.53M13 6.9a.933.933 0 0 1 .458.307 1.08 1.08 0 0 1 .208.887A1.17 1.17 0 0 1 13 8.96z"/><path fill="#80CBC4" d="M9.48 8.262a.929.929 0 0 0 .77.045 1.07 1.07 0 0 0 .61-.628 1.18 1.18 0 0 0-.504-1.465.93.93 0 0 0-.77-.045 1.07 1.07 0 0 0-.61.628 1.18 1.18 0 0 0 .504 1.465M8.127 9.37a1.18 1.18 0 0 0 .33-.85 1.113 1.113 0 0 0-1.023-1.142.94.94 0 0 0-.68.284 1.18 1.18 0 0 0-.33.85 1.15 1.15 0 0 0 .799 1.11.9.9 0 0 0 .593-.041.9.9 0 0 0 .311-.211M11.812 8.726a.93.93 0 0 0 .69.345 1.18 1.18 0 0 0 1.17-1.017 1.07 1.07 0 0 0-.214-.848.93.93 0 0 0-.69-.346 1.18 1.18 0 0 0-1.17 1.017 1.07 1.07 0 0 0 .214.849M15.164 9.914a.94.94 0 0 0-.448-.585 1.11 1.11 0 0 0-1.456.476 1.18 1.18 0 0 0-.14.902.94.94 0 0 0 .658.67 1.15 1.15 0 0 0 1.247-.56 1.18 1.18 0 0 0 .139-.903M10.791 9.413c-1.3-.348-3.433 1.221-3.868 2.846a1.5 1.5 0 0 0 1.06 1.837c.308.09.634.095.945.018.197-.054.406-.051.601.008.2.047.381.149.524.294.231.222.517.38.828.457a1.5 1.5 0 0 0 1.837-1.061c.436-1.625-.627-4.05-1.927-4.399"/></svg>