<svg xmlns="http://www.w3.org/2000/svg" width="16" height="16" fill="none"><path fill="#80CBC4" d="M9.014 2.8H12.8A2.2 2.2 0 0 1 15 5v.2a3.1 3.1 0 0 0-1.916-.667h-2.548a3.4 3.4 0 0 0-1.342-.277c-.458 0-.896.09-1.295.257L6.385 3H3.2a.2.2 0 0 0-.2.2V11c0 .11.09.2.2.2h2.839a3.07 3.07 0 0 0-.112 2H3.2A2.2 2.2 0 0 1 1 11V3.2A2.2 2.2 0 0 1 3.2 1h4.014zm4.243 6.636-.173.008q.09 0 .176-.008zm.505-.125-.088.032q.046-.014.088-.032m.297-.156q-.03.02-.063.038.032-.018.063-.038m.664-.766q-.02.045-.043.09.024-.045.043-.09m.088-1.272q.012.043.022.085-.01-.042-.022-.085m-.057-.16.033.09q-.015-.045-.034-.09m-.077-.163q.024.046.045.094-.02-.048-.045-.094m-.404-.51q.022.019.043.038zm-.429-.28.079.037zm-.178-.072q.052.016.102.037-.05-.02-.102-.037m-.156-.045q.052.011.102.025-.05-.014-.102-.025"/><g fill="#80CBC4" opacity=".4"><path d="M13.083 9.444h-2.967a.417.417 0 0 1-.417-.416V6.25c0-.23.187-.417.417-.417h2.967c.996 0 1.806.81 1.806 1.806 0 .995-.81 1.805-1.806 1.805M11.884 14.167H8.917c-.996 0-1.806-.81-1.806-1.806 0-.995.81-1.805 1.806-1.805h2.969a.416.416 0 0 1 .416.417l-.001 2.777c0 .23-.187.417-.417.417"/></g><path fill="#80CBC4" d="M9.195 9.722A2.086 2.086 0 0 1 7.11 7.64c0-1.149.935-2.083 2.084-2.083 1.148 0 2.083.934 2.083 2.083a2.086 2.086 0 0 1-2.083 2.083M12.806 14.444a2.086 2.086 0 0 1-2.084-2.083c0-1.149.935-2.083 2.084-2.083 1.148 0 2.083.934 2.083 2.083a2.086 2.086 0 0 1-2.083 2.083"/></svg>