<svg xmlns="http://www.w3.org/2000/svg" width="16" height="16" fill="none"><path fill="#4A616C" d="M9.014 2.8H12.8A2.2 2.2 0 0 1 15 5v.562a2.8 2.8 0 0 0-1.199-.656 2.27 2.27 0 0 0-1.829-.928h-1.944c-.702 0-1.325.322-1.741.822h-.1L6.384 3H3.2a.2.2 0 0 0-.2.2V11c0 .11.09.2.2.2h2.89v1.716q0 .143.014.284H3.2A2.2 2.2 0 0 1 1 11V3.2A2.2 2.2 0 0 1 3.2 1h4.014z"/><path fill="#FFCB6B" d="M8.917 6.111c-.844 0-1.528.684-1.528 1.528v5.278c0 .844.684 1.527 1.528 1.527h4.166c.844 0 1.528-.683 1.528-1.527V7.639c0-.844-.684-1.528-1.528-1.528z" opacity=".4"/><path fill="#FFCB6B" fill-rule="evenodd" d="M9.056 11.528c0-.23.186-.417.416-.417h3.056a.417.417 0 0 1 0 .833H9.472a.417.417 0 0 1-.416-.416M9.056 9.861c0-.23.186-.417.416-.417h3.056a.417.417 0 0 1 0 .834H9.472a.417.417 0 0 1-.416-.417" clip-rule="evenodd"/><path fill="#B2CCD6" fill-rule="evenodd" d="M9.056 6.25c0-.537.435-.972.972-.972h1.944a.972.972 0 0 1 0 1.944h-1.944a.97.97 0 0 1-.972-.972" clip-rule="evenodd"/></svg>