<svg xmlns="http://www.w3.org/2000/svg" width="16" height="16" fill="none"><path fill="#4A616C" d="M9.015 2.8H12.8A2.2 2.2 0 0 1 15 5h-2a.2.2 0 0 0-.2-.2H8.186L6.386 3H3.2a.2.2 0 0 0-.2.2V11c0 .11.09.2.2.2H5v2H3.2A2.2 2.2 0 0 1 1 11V3.2A2.2 2.2 0 0 1 3.2 1h4.014z"/><mask id="a" width="10" height="8" x="6" y="6" maskUnits="userSpaceOnUse" style="mask-type:alpha"><rect width="8.654" height="7.5" x="6.673" y="6.25" fill="#00B6C2" rx=".721"/></mask><g mask="url(#a)"><path fill="#343944" d="M6.673 6.25h8.654v7.5H6.673z"/><path fill="#AEE33E" d="M13.66 9.689a1.56 1.56 0 0 0-2.33 0l-3.247 3.52c.175.08.367.124.568.124h4.76c.809 0 1.464-.71 1.464-1.587v-.74z"/><path fill="#AEE33E" d="M13.083 11.667h1.792v1.25c0 .23-.187.416-.417.416h-1.375z"/><path fill="#FFCB6B" d="M8.612 9.167a.978.978 0 1 0 0-1.956.978.978 0 0 0 0 1.956"/></g></svg>