<svg xmlns="http://www.w3.org/2000/svg" width="16" height="16" fill="none"><path fill="#4A616C" d="M9.014 2.8H12.8A2.2 2.2 0 0 1 15 5v1.845a5.8 5.8 0 0 0-2-1.58V5a.2.2 0 0 0-.2-.2H11.57a5.8 5.8 0 0 0-2.138 0H8.186L6.386 3H3.2a.2.2 0 0 0-.2.2V11c0 .11.09.2.2.2h1.544c.086.714.302 1.389.625 2h-2.17A2.2 2.2 0 0 1 1 11V3.2A2.2 2.2 0 0 1 3.2 1h4.015zm4.624 8.331-.002.006.002-.009zm1.357-.855-.001-.007zm-.922.04v.006zm-.014-.174q.005.053.008.107-.003-.054-.008-.107m.672-1.173.038.111zm-.162-.389.03.067zm-.313-.554.045.07zm-.12-.175.044.064zm-.269-.333q.03.033.056.066zm-.452-.442q.036.03.072.062zm-.357-.275"/><path fill="#F69DD5" d="M11.854 10.5c0 .746-.608 1.354-1.354 1.354A1.355 1.355 0 0 1 9.146 10.5c0-.746.608-1.354 1.354-1.354s1.354.608 1.354 1.354M10.5 6A4.505 4.505 0 0 0 6 10.5c0 2.481 2.019 4.5 4.5 4.5.909 0 1.785-.27 2.535-.783l.013-.009-.607-.704-.01.006a3.56 3.56 0 0 1-1.931.568A3.58 3.58 0 0 1 6.923 10.5 3.58 3.58 0 0 1 10.5 6.923a3.582 3.582 0 0 1 3.493 4.346c-.113.464-.438.607-.682.588-.246-.02-.533-.195-.535-.623V10.5A2.28 2.28 0 0 0 10.5 8.224 2.28 2.28 0 0 0 8.224 10.5a2.28 2.28 0 0 0 3.15 2.102c.277-.115.528-.284.739-.498a1.46 1.46 0 0 0 1.245.677c.327 0 .652-.11.913-.308a1.7 1.7 0 0 0 .583-.857c.017-.057.05-.189.05-.19l.001-.005c.066-.285.095-.57.095-.921C15 8.019 12.981 6 10.5 6"/></svg>