<svg xmlns="http://www.w3.org/2000/svg" width="16" height="16" fill="none"><path fill="#303236" d="M9.015 2.8H12.8c1.043 0 1.914.727 2.14 1.701a5.5 5.5 0 0 0-1.977.39.2.2 0 0 0-.163-.091H8.79a5.5 5.5 0 0 0-.818-.213L6.386 3H3.2a.2.2 0 0 0-.2.2V11c0 .11.09.2.2.2h3.35q.082.09.169.174a3 3 0 0 0-.134 1.826H3.2A2.2 2.2 0 0 1 1 11V3.2A2.2 2.2 0 0 1 3.2 1h4.014zm3.967 8.28A1.5 1.5 0 0 1 14 12.5a1.5 1.5 0 0 1-.049.371c-.335.207-.728.33-1.151.33h-1.626A1.5 1.5 0 0 1 11 12.5c0 .253-.063.491-.174.7H8.174a1.5 1.5 0 0 1-.148-.98c.083-.436.354-.805.726-1.02H12.8a.2.2 0 0 0 .182-.12M15 8.5a2.496 2.496 0 0 1-2 2.448V6.536A4 4 0 0 1 15 6z"/><path fill="#89DDFF" d="M11 10a4 4 0 0 0-4-4v2.5A2.5 2.5 0 0 0 9.5 11a1.5 1.5 0 1 0 1.5 1.5 1.5 1.5 0 1 0 1.5-1.5A2.5 2.5 0 0 0 15 8.5V6a4 4 0 0 0-4 4"/></svg>