<svg xmlns="http://www.w3.org/2000/svg" width="16" height="16" fill="none"><path fill="#303236" d="M9.015 2.8H12.8A2.2 2.2 0 0 1 15 5v1.81c-.588-.58-1.272-1-2-1.263V5a.2.2 0 0 0-.2-.2H8.186L6.386 3H3.2a.2.2 0 0 0-.2.2V11c0 .11.09.2.2.2h2.065q.078.118.178.219.042.039.085.075.003.052.008.103l.035.228c.087.49.24.95.447 1.375H3.2A2.2 2.2 0 0 1 1 11V3.2A2.2 2.2 0 0 1 3.2 1h4.014z"/><path fill="#C3E88D" d="M9.226 8.933c1.106-1.105 2.967-1.105 4.073 0 .407.408.698.99.814 1.571l1.163-.174a3.83 3.83 0 0 0-1.105-2.211c-1.57-1.57-4.13-1.57-5.76 0l-1.279-1.28-.407 3.723 3.723-.407z"/><path fill="#FF8B8B" d="m15.8 11.377-3.723.407 1.222 1.222c-1.106 1.105-2.967 1.105-4.073 0-.407-.408-.698-.99-.814-1.571l-1.164.175a3.83 3.83 0 0 0 1.106 2.21c.814.815 1.803 1.164 2.85 1.164a4.05 4.05 0 0 0 2.85-1.164l1.28 1.28z"/></svg>