<svg xmlns="http://www.w3.org/2000/svg" width="16" height="16" fill="none"><path fill="#303236" d="M9.015 2.8H12.8A2.2 2.2 0 0 1 15 5v2.295l-.213-.564h-.264a1.84 1.84 0 0 0-.52-1.579 1.85 1.85 0 0 0-1.306-.54h-.945a1.848 1.848 0 0 0-3.388 0h-.367L6.386 3H3.2a.2.2 0 0 0-.2.2V11c0 .11.09.2.2.2h2.68a1.85 1.85 0 0 0 1.827 1.184q.168-.006.332-.043a7.1 7.1 0 0 0 2.02-.752q.083.046.168.09L9.65 13.2H3.2A2.2 2.2 0 0 1 1 11V3.2A2.2 2.2 0 0 1 3.2 1h4.014zM13.75 8.23l1.207 3.197a2.2 2.2 0 0 1-.714 1.23h-1.93l-.189.542h-.87l.758-2h.788q.015 0 .032-.004l-.228.653h1.666l-.83-2.394-.44 1.26V8.578l.13-.346zM13 6.29a.35.35 0 0 1 .044.168.35.35 0 0 1-.044.165z"/><path fill="#C792EA" d="M13.75 8.231h-.62l-.727 1.925a5 5 0 0 1-1.838-.845 5 5 0 0 0 1.23-2.508h.903a.346.346 0 1 0 0-.692h-2.294v-.765a.346.346 0 0 0-.692 0v.765H7.417a.346.346 0 1 0 0 .692h.904a4.97 4.97 0 0 0 1.228 2.508 5.1 5.1 0 0 1-1.983.881.348.348 0 0 0 .074.693.3.3 0 0 0 .077-.009 5.6 5.6 0 0 0 2.341-1.082 5.5 5.5 0 0 0 2.1 1.021L10.95 14h.895l.467-1.343h2.24L15.025 14h.904zm-2.648-1.428a4.1 4.1 0 0 1-1.039 2.053 4.1 4.1 0 0 1-1.038-2.053zm1.502 5.046.836-2.394.83 2.394z"/></svg>