<svg xmlns="http://www.w3.org/2000/svg" width="16" height="16" fill="none"><path fill="#80CBC4" d="M9.014 2.8H12.8A2.2 2.2 0 0 1 15 5v1.81c-.588-.58-1.272-1-2-1.263V5a.2.2 0 0 0-.2-.2H8.186L6.386 3H3.2a.2.2 0 0 0-.2.2V11c0 .11.09.2.2.2h2.064q.079.117.18.219.04.039.084.075.003.051.008.102l.035.229c.087.49.24.95.447 1.375H3.2A2.2 2.2 0 0 1 1 11V3.2A2.2 2.2 0 0 1 3.2 1h4.014z"/><path fill="#80CBC4" d="M9.221 8.933c1.106-1.105 2.967-1.105 4.073 0 .407.408.698.99.814 1.571l1.164-.174a3.83 3.83 0 0 0-1.106-2.211c-1.57-1.57-4.13-1.57-5.759 0l-1.28-1.28-.407 3.723 3.723-.407zM15.795 11.377l-3.723.407 1.222 1.222c-1.106 1.105-2.967 1.105-4.073 0-.407-.408-.698-.99-.814-1.571l-1.163.175a3.83 3.83 0 0 0 1.105 2.21c.814.815 1.803 1.164 2.85 1.164a4.05 4.05 0 0 0 2.851-1.164l1.28 1.28z"/></svg>