<svg xmlns="http://www.w3.org/2000/svg" width="16" height="16" fill="none"><path fill="#4A616C" d="M9.015 2.8H12.8A2.2 2.2 0 0 1 15 5v.528A5.98 5.98 0 0 0 11 4a6 6 0 0 0-2.88.734L6.386 3H3.2a.2.2 0 0 0-.2.2V11c0 .11.09.2.2.2h1.92c.147.723.424 1.397.805 2H3.2A2.2 2.2 0 0 1 1 11V3.2A2.2 2.2 0 0 1 3.2 1h4.014z"/><path fill="#82AAFF" fill-rule="evenodd" d="M7 10a4 4 0 1 1 8 0 4 4 0 0 1-8 0" clip-rule="evenodd" opacity=".4"/><path fill="#AEE33E" d="M13.266 7.296a.37.37 0 0 1-.289.075c-.557-.087-.955-.04-1.09.13-.11.137-.085.415-.062.66.03.34.07.761-.284.987-.315.2-.64.04-.879-.077-.213-.105-.416-.204-.625-.146-.264.073-.409.345-.435.398-.122.247-.075.508-.011.688.642-.127 1.189-.06 1.63.198.215.126.387.298.545.489.125.149.162.185.24.2.137.027.272-.062.48-.207.287-.2.595-.377.959-.309.385.074.69.38.932.927q.135.259.188.503a4 4 0 0 1-4.247 2.13c.06-.21.119-.418.121-.429.037-.128.107-.449-.033-.658-.048-.072-.1-.102-.213-.162-.206-.108-.384-.24-.507-.444-.136-.226-.16-.466-.146-.724a.84.84 0 0 0-.034-.366c-.064-.179-.192-.3-.339-.41-.08-.068-.174-.124-.26-.186-.544-.397-.984-.995-1.325-1.763a2.3 2.3 0 0 1-.191-.524A4 4 0 0 1 11 6c1.009 0 1.932.376 2.637.994z"/></svg>