<svg xmlns="http://www.w3.org/2000/svg" width="16" height="16" fill="none"><path fill="#303236" d="M9.015 2.8H12.8A2.2 2.2 0 0 1 15 5v2l-2-2a.2.2 0 0 0-.16-.196L12.8 4.8l-.027-.028a1.8 1.8 0 0 0-2.546 0L10.2 4.8H8.186L6.386 3H3.2a.2.2 0 0 0-.2.2V11c0 .11.09.2.2.2h2.188c.087.208.215.403.384.573L7.2 13.2h-4A2.2 2.2 0 0 1 1 11V3.2A2.2 2.2 0 0 1 3.2 1h4.014z"/><path fill="#FF8B8B" d="M15.83 10.1 11.9 6.17a.58.58 0 0 0-.819 0l-.816.816L11.3 8.02a.688.688 0 0 1 .872.877l.997.998a.688.688 0 0 1 .713 1.139.69.69 0 0 1-1.126-.75l-.93-.93v2.448a.69.69 0 1 1-.567-.02V9.312a.69.69 0 0 1-.374-.904l-1.02-1.021L7.17 10.08a.58.58 0 0 0 0 .82l3.93 3.93a.58.58 0 0 0 .82 0l3.91-3.912a.58.58 0 0 0 0-.82"/></svg>