<svg xmlns="http://www.w3.org/2000/svg" width="16" height="16" fill="none"><path fill="#4A616C" d="M9.015 2.8H12.8A2.2 2.2 0 0 1 15 5v1.272c-.215-.21-.59-.472-1.102-.472-.211 0-.38.057-.422.071l-.003.001c-.07.024-.134.05-.182.071A5 5 0 0 0 13 6.09V5a.2.2 0 0 0-.2-.2H8.186L6.386 3H3.2a.2.2 0 0 0-.2.2V11c0 .11.09.2.2.2h5.6v.974h.597l.098 1.026H3.2A2.2 2.2 0 0 1 1 11V3.2A2.2 2.2 0 0 1 3.2 1h4.014zm5.803 7.206v.968h-.478l-.17 1.745c-.376.3-.852.481-1.37.481H10.7l-.19-1.994V11.2H12.8a.2.2 0 0 0 .2-.2v-.994zm.182-1.2h-.165l.075-.056.09-.073zM13.898 7c.196 0 .423.254.423.47a.54.54 0 0 1-.061.26c-.022.03-.166.134-.362.263a13 13 0 0 1-.346.22l-.218.134-.334.205v-1.08l.07-.041a13 13 0 0 1 .427-.247c.213-.117.357-.184.401-.184"/><path fill="#FA6068" d="M10.73 13.508c-.13-1.352-.236-2.475-.235-2.496s-.11-.038-.247-.038H10v-.968h1.937v-1.88l.914-.563c.557-.343.966-.563 1.047-.563.196 0 .423.253.423.47a.54.54 0 0 1-.062.26c-.034.047-.352.265-.707.483l-.646.397-.014.698-.014.698h1.94v.968h-.478l-.242 2.496-.154 1.593a1 1 0 0 1-.996.903h-1.073a1 1 0 0 1-.995-.904z"/></svg>