<svg xmlns="http://www.w3.org/2000/svg" width="16" height="16" fill="none"><path fill="#80CBC4" d="M9.015 2.8H12.8A2.2 2.2 0 0 1 15 5v.27A2 2 0 0 0 14 5h-1a.2.2 0 0 0-.2-.2H8.186L6.386 3H3.2a.2.2 0 0 0-.2.2V11c0 .11.09.2.2.2H5v2H3.2A2.2 2.2 0 0 1 1 11V3.2A2.2 2.2 0 0 1 3.2 1h4.014z"/><path fill="#80CBC4" d="M13.778 6.222a1 1 0 0 1 1 1v6.556a1 1 0 0 1-1 1H7.222a1 1 0 0 1-1-1V7.222a1 1 0 0 1 1-1zM9.79 8.65a.663.663 0 0 0-.881 0l-1.557 1.382a.618.618 0 0 0 0 .935L8.91 12.35a.663.663 0 0 0 .88-.991l-.965-.86.966-.858a.663.663 0 0 0 0-.991m2.3 0a.664.664 0 0 0-.881.991l.966.859-.966.859a.663.663 0 1 0 .881.991l1.556-1.383a.618.618 0 0 0 0-.935z"/></svg>