<svg xmlns="http://www.w3.org/2000/svg" width="16" height="16" fill="none"><path fill="#80CBC4" d="M9.015 2.8H12.8A2.2 2.2 0 0 1 15 5v.27A2 2 0 0 0 14 5h-1a.2.2 0 0 0-.2-.2H8.186L6.386 3H3.2a.2.2 0 0 0-.2.2V11c0 .11.09.2.2.2H5v2H3.2A2.2 2.2 0 0 1 1 11V3.2A2.2 2.2 0 0 1 3.2 1h4.014z"/><rect width="8.556" height="8.556" x="6.222" y="6.222" fill="#80CBC4" opacity=".16" rx="1"/><rect width="2.444" height="2.444" x="7.444" y="7.444" fill="#80CBC4" rx="1"/><rect width="2.444" height="2.444" x="11.111" y="7.444" fill="#80CBC4" rx="1"/><rect width="2.444" height="2.444" x="11.111" y="11.111" fill="#80CBC4" rx="1"/><rect width="2.444" height="2.444" x="7.444" y="11.111" fill="#80CBC4" rx="1"/></svg>