<svg xmlns="http://www.w3.org/2000/svg" width="16" height="16" fill="none"><path fill="#80CBC4" d="M9.015 2.8H12.8A2.2 2.2 0 0 1 15 5v.651l-2.102-.822a.2.2 0 0 0-.068-.026l-.164-.065-.064.062H8.186L6.386 3H3.2a.2.2 0 0 0-.2.2V11c0 .11.09.2.2.2h2.75v1.444l.885.433v.003l.248.12H3.2A2.2 2.2 0 0 1 1 11V3.2A2.2 2.2 0 0 1 3.2 1h4.014zm1.48 10.4H8.77l.966-.719zm4.254-6.25v5.067a2.2 2.2 0 0 1-1.95 1.183h-.414l-2.11-2h2.327l.163.123V11.2h.035a.2.2 0 0 0 .2-.2V6.265zM9.281 11.2l-1.32.982-.711-.349V11.2z"/><path fill="#80CBC4" fill-rule="evenodd" d="m14.75 6.95-1.788-.7-3.119 2.967L7.965 7.82l-.714.351-.001 3.662.71.348 1.878-1.395 3.127 2.964 1.785-.697zm-1.986 1.726L11 9.995l1.765 1.329zm-4.63 2.096-.002-1.544.883.767z" clip-rule="evenodd"/></svg>