<svg xmlns="http://www.w3.org/2000/svg" width="16" height="16" fill="none"><path fill="#303236" d="M9.015 2.8H12.8c1.038 0 1.907.72 2.137 1.688h-4.152a1.3 1.3 0 0 0-.843.312H8.186L6.386 3H3.2a.2.2 0 0 0-.2.2V11c0 .11.09.2.2.2h3.625c-.083.222-.16.467-.203.727-.048.289-.094.757.005 1.263l.002.01H3.2A2.2 2.2 0 0 1 1 11V3.2A2.2 2.2 0 0 1 3.2 1h4.014zm5.055 6.383-.008.002.04-.013q-.015.004-.032.01"/><path fill="#FF8B8B" d="m12.894 7.82-.555 1.123c.182.17.311.392.362.645h.418c.048-.24.166-.454.335-.62z"/><path fill="#FF8B8B" d="m11.873 8.672 1.021-2.07 1.018 2.083q.06-.019.12-.035L15 5.79h-4.215l.965 2.853q.062.013.123.03M11.522 10.502a.677.677 0 0 0 .49-1.145l-.002-.003a.5.5 0 0 0-.091-.078l-.003-.002q-.013-.01-.03-.02-.002-.001-.005-.002l-.032-.019h-.003l-.034-.019h-.003l-.032-.013q-.005-.001-.008-.003l-.027-.01q-.004-.002-.01-.003-.017-.006-.033-.01h-.003l-.037-.009q-.004 0-.011-.003-.014-.002-.03-.005-.007 0-.013-.003l-.027-.002h-.104l-.03.002h-.01q-.017.003-.032.006h-.008l-.038.008a.68.68 0 0 0-.514.658.686.686 0 0 0 .68.675M14.362 9.147h-.005l-.03-.002h-.034q-.02 0-.043.002h-.014q-.015.001-.032.003-.006 0-.01.003l-.04.008h-.003l-.038.008-.01.002q-.017.004-.033.011-.003.002-.008.003-.02.007-.037.016l-.038.016q-.003.002-.008.003l-.032.019q-.002 0-.003.002a.4.4 0 0 0-.07.049l-.002.002a.59.59 0 0 0-.169.196.677.677 0 0 0 .587 1.013.677.677 0 0 0 .675-.677.68.68 0 0 0-.544-.666q-.025-.007-.059-.01M8.722 10.502a.677.677 0 0 0 0-1.355.677.677 0 0 0 0 1.354"/><path fill="#FF8B8B" d="M14.295 11.026a1.2 1.2 0 0 1-1.16-.9h-.45a1.203 1.203 0 0 1-1.345.886q-.232.359-.557.664a3.7 3.7 0 0 1-1.287.8l-.11.04-.101-.053c-.563-.29-.852-.879-.75-1.448a1 1 0 0 1-.185-.049q-.016.03-.03.062c-.171.355-.35.72-.415 1.113-.07.419-.1 1.185.49 1.593.257.177.528.266.83.266.582 0 1.21-.312 1.874-.642.52-.258 1.055-.527 1.613-.664.211-.05.426-.083.632-.113.378-.053.737-.107 1.029-.276a1.19 1.19 0 0 0 .528-1.443 1.2 1.2 0 0 1-.606.163"/></svg>