<svg xmlns="http://www.w3.org/2000/svg" width="16" height="16" fill="none"><path fill="#303236" d="M9.015 2.8H12.8A2.2 2.2 0 0 1 15 5h-2a.2.2 0 0 0-.2-.2H8.186L6.386 3H3.2a.2.2 0 0 0-.2.2V11c0 .11.09.2.2.2H5v2H3.2A2.2 2.2 0 0 1 1 11V3.2A2.2 2.2 0 0 1 3.2 1h4.014z"/><path fill="#69A7D3" fill-rule="evenodd" d="M7.222 6.222a1 1 0 0 0-1 1v6.556a1 1 0 0 0 1 1h6.556a1 1 0 0 0 1-1V7.222a1 1 0 0 0-1-1zm5.545 2.318a.632.632 0 1 0-1.052-.701l-3.091 4.636a.632.632 0 1 0 1.052.702z" clip-rule="evenodd"/></svg>