<svg xmlns="http://www.w3.org/2000/svg" width="16" height="16" fill="none"><g fill="#80CBC4" clip-path="url(#a)"><path d="M9.015 2.8H12.8A2.2 2.2 0 0 1 15 5h-2a.2.2 0 0 0-.2-.2H8.186L6.386 3H3.2a.2.2 0 0 0-.2.2V11c0 .11.09.2.2.2H6v2H3.2A2.2 2.2 0 0 1 1 11V3.2A2.2 2.2 0 0 1 3.2 1h4.014z"/><path d="m12.57 6.08-.04.904a.06.06 0 0 0 .032.056.06.06 0 0 0 .065-.006l.353-.266.3.233a.06.06 0 0 0 .093-.047l-.033-.92.443-.033a.4.4 0 0 1 .427.4V13.6a.4.4 0 0 1-.42.4l-5.366-.24a.4.4 0 0 1-.383-.387l-.25-6.6a.4.4 0 0 1 .377-.422l4.399-.277zM11.547 9.1c0 .157 1.053.08 1.196-.027 0-1.066-.573-1.63-1.62-1.63-1.05 0-1.632.574-1.632 1.43 0 1.484 2 1.51 2 2.32 0 .233-.107.367-.35.367-.32 0-.45-.164-.434-.72 0-.12-1.216-.16-1.256 0-.09 1.343.743 1.733 1.7 1.733.93 0 1.656-.497 1.656-1.393 0-1.59-2.033-1.547-2.033-2.333 0-.324.24-.367.376-.367.15 0 .417.023.397.623z"/></g><defs><clipPath id="a"><path fill="#fff" d="M0 0h16v16H0z"/></clipPath></defs></svg>