<svg xmlns="http://www.w3.org/2000/svg" width="16" height="16" fill="none"><path fill="#4A616C" d="M9.015 2.8H12.8A2.2 2.2 0 0 1 15 5v1.257a5.5 5.5 0 0 0-2-1.049V5a.2.2 0 0 0-.2-.2H8.186L6.386 3H3.2a.2.2 0 0 0-.2.2V11c0 .11.09.2.2.2h2.846a5.5 5.5 0 0 0 .663 2H3.2A2.2 2.2 0 0 1 1 11V3.2A2.2 2.2 0 0 1 3.2 1h4.014z"/><path fill="#FFCB6B" d="M11.717 10.125h1.62a1.875 1.875 0 0 0-1.837-1.5 1.9 1.9 0 0 0-.59.104zM10.26 11.897l.807-1.397-.806-1.397a1.86 1.86 0 0 0-.636 1.397c0 .558.249 1.053.636 1.397M11.717 10.875l-.806 1.396c.186.062.382.104.59.104.907 0 1.663-.644 1.837-1.5z"/><path fill="#FFCB6B" d="M15.625 10.875v-.75h-.772a3.4 3.4 0 0 0-.262-.976l.67-.386-.376-.65-.672.388a3.4 3.4 0 0 0-.713-.713l.388-.672-.65-.375-.386.669a3.3 3.3 0 0 0-.976-.262v-.773h-.75v.772a3.4 3.4 0 0 0-.976.262l-.387-.67-.65.376.389.672a3.4 3.4 0 0 0-.714.714l-.672-.389-.375.65.67.386a3.3 3.3 0 0 0-.262.976h-.774v.75h.772c.038.344.129.672.262.976l-.67.387.376.65.672-.389c.2.272.441.512.713.714l-.388.672.65.375.386-.67c.305.134.633.224.976.262v.772h.75v-.772c.344-.038.672-.128.976-.262l.387.67.65-.375-.389-.672c.272-.201.512-.442.714-.714l.672.388.375-.65-.67-.386c.134-.304.224-.632.262-.976h.772zm-1.5-.375a2.63 2.63 0 0 1-2.625 2.625A2.63 2.63 0 0 1 8.875 10.5 2.63 2.63 0 0 1 11.5 7.875a2.63 2.63 0 0 1 2.625 2.625"/></svg>