<svg xmlns="http://www.w3.org/2000/svg" width="16" height="16" fill="none"><path fill="#303236" d="M9.014 2.8H12.8c1.185 0 2.148.937 2.195 2.11a1.9 1.9 0 0 0-.665-.199l-.201-.01h-3.604c-.666 0-1.298.24-1.796.66l-.205.191-.003.002L6.506 7.64a2.9 2.9 0 0 0-.793 1.73l-.013.278V13.2H3.2A2.2 2.2 0 0 1 1 11V3.2A2.2 2.2 0 0 1 3.2 1h4.014z"/><path fill="url(#a)" d="M14.128 6c.333 0 .603.28.603.625v3.727c0 .415-.16.813-.442 1.105l-2.015 2.086a1.5 1.5 0 0 1-1.068.457H7.604A.615.615 0 0 1 7 13.375V9.647c0-.414.16-.81.442-1.104l2.015-2.086A1.49 1.49 0 0 1 10.525 6zm-6.161 7h4.832V8H7.967z"/><path fill="#fff" d="M10.624 11.875H8.57v.5h2.054z"/><defs><linearGradient id="a" x1="7.103" x2="14.816" y1="13.84" y2="6.49" gradientUnits="userSpaceOnUse"><stop stop-color="#FA6068"/><stop offset=".43" stop-color="#FA6068"/><stop offset=".99" stop-color="#D14748"/></linearGradient></defs></svg>