<svg xmlns="http://www.w3.org/2000/svg" width="16" height="16" fill="none"><path fill="#303236" d="M9.015 2.8H12.8A2.2 2.2 0 0 1 15 5v1.77l-3.065-1.743h-.001a2.17 2.17 0 0 0-2.146 0h-.002L6.091 7.13A2.17 2.17 0 0 0 5 9.012V13.2H3.2A2.2 2.2 0 0 1 1 11V3.2A2.2 2.2 0 0 1 3.2 1h4.014z"/><path fill="#2ECC71" fill-rule="evenodd" d="M11.081 6.683a.45.45 0 0 0-.222.058L7.162 8.843a.45.45 0 0 0-.222.389v4.219c0 .157.084.301.222.38l3.697 2.11a.45.45 0 0 0 .444 0L15 13.83a.44.44 0 0 0 .222-.38V9.23A.45.45 0 0 0 15 8.844l-3.697-2.102a.45.45 0 0 0-.222-.058" clip-rule="evenodd" opacity=".6"/><path fill="#2ECC71" d="m11.165 6.693 4.01 6.947a.44.44 0 0 1-.175.191l-3.697 2.11a.44.44 0 0 1-.307.047l-4.01-6.947a.44.44 0 0 1 .177-.197l3.696-2.103a.45.45 0 0 1 .222-.058q.042.001.084.01"/></svg>