<svg xmlns="http://www.w3.org/2000/svg" width="16" height="16" fill="none"><path fill="#80CBC4" fill-rule="evenodd" d="M3.2 0A2.2 2.2 0 0 0 1 2.2V10a2.2 2.2 0 0 0 2.2 2.2H6v-2H3.2A.2.2 0 0 1 3 10V2.2c0-.11.09-.2.2-.2h3.186l1.8 1.8H12.8c.11 0 .2.09.2.2v1h2V4a2.2 2.2 0 0 0-2.2-2.2H9.014L7.214 0z" clip-rule="evenodd"/><path fill="#80CBC4" fill-rule="evenodd" d="M8.222 6.222a1 1 0 0 0-1 1v6.556a1 1 0 0 0 1 1h6.556a1 1 0 0 0 1-1V7.222a1 1 0 0 0-1-1zm4.916 2.722a.5.5 0 0 0-.832-.555l-2.444 3.667a.5.5 0 0 0 .832.555z" clip-rule="evenodd"/></svg>