<svg xmlns="http://www.w3.org/2000/svg" width="16" height="16" fill="none"><path fill="#303236" d="M9.015 2.8H12.8A2.2 2.2 0 0 1 15 5v1.374l-2.925-1.677a2.15 2.15 0 0 0-2.151 0L6.07 6.908A2.1 2.1 0 0 0 5 8.744v4.42l.001.036h-1.8A2.2 2.2 0 0 1 1 11V3.2A2.2 2.2 0 0 1 3.2 1h4.014z"/><path fill="#FFCB6B" d="m11.128 9.713 3.973-1.786-3.794-1.696c-.134-.045-.268-.045-.357 0L7.155 7.927z"/><path fill="#916B53" d="M11.574 10.472v5.356l3.75-1.651q.268-.135.268-.402V8.686zM10.682 10.472 6.664 8.686v5.089c0 .178.09.357.268.402l3.75 1.651z"/></svg>