<svg xmlns="http://www.w3.org/2000/svg" width="16" height="16" fill="none"><path fill="#80CBC4" fill-rule="evenodd" d="M3.2 1A2.2 2.2 0 0 0 1 3.2V11a2.2 2.2 0 0 0 2.2 2.2h2.386a6.5 6.5 0 0 1-.549-2H3.2A.2.2 0 0 1 3 11V3.2c0-.11.09-.2.2-.2h3.186l1.8 1.8h.187A6.5 6.5 0 0 1 11.5 4 6.47 6.47 0 0 1 15 5.022V5a2.2 2.2 0 0 0-2.2-2.2H9.014L7.214 1z" clip-rule="evenodd"/><path fill="#80CBC4" d="M11.19 7.465a2.73 2.73 0 0 0-2.725 2.725 2.73 2.73 0 0 0 2.725 2.726 2.73 2.73 0 0 0 2.726-2.726 2.73 2.73 0 0 0-2.726-2.725m0 4.136a1.41 1.41 0 1 1 0-2.82 1.41 1.41 0 0 1 0 2.82"/><path fill="#80CBC4" fill-rule="evenodd" d="M11.419 7.018V6a4.197 4.197 0 0 1 0 8.38v-1.017a3.186 3.186 0 0 0 2.953-3.173 3.185 3.185 0 0 0-2.953-3.172M8.787 12.27a3.17 3.17 0 0 1-.769-1.852H7a4.18 4.18 0 0 0 1.066 2.572zm2.175 2.11v-1.018a3.17 3.17 0 0 1-1.853-.769l-.72.72a4.18 4.18 0 0 0 2.573 1.067" clip-rule="evenodd"/></svg>