<svg xmlns="http://www.w3.org/2000/svg" width="16" height="16" fill="none"><path fill="#303236" d="M9.014 2.8H12.8c.916 0 1.7.56 2.03 1.356A2.8 2.8 0 0 0 13.916 4l-.286.014a2.81 2.81 0 0 0-2.515 2.5l-.014.288v.015c0 .825.359 1.56.923 2.07q-.119.296-.272.572l-.118.198c-.482.765-1.148 1.311-2.098 1.588A2.82 2.82 0 0 0 7.33 10.18l-.286.015a2.81 2.81 0 0 0-2.514 2.5l-.015.288v.013q.001.102.01.203H3.2A2.2 2.2 0 0 1 1 11V3.2A2.2 2.2 0 0 1 3.2 1h4.014zM5.92 12.696l-.022.141a1 1 0 0 1 .022-.141m.104-.31q.018-.043.04-.083zm.636-.667.063-.03zm1.138-.085q.033.01.065.023-.032-.012-.065-.023m-.263-.063.07.01zm-.068-.01h-.003l-.133-.006q.069 0 .136.007M15 10.77q-.07-.006-.141-.007l-.057.004q.105-.21.198-.422zm-.77-2.559-.037.179q.019-.092.035-.18l.089-.023q-.043.014-.088.024m-.665-.01-.046-.012zm.901-.065q-.036.015-.074.026.038-.011.074-.026m-1.265-.08-.03-.018zm1.496-.041q-.03.02-.063.037.032-.018.063-.037m.212-.167-.057.052zm-2.278-.386-.029-.06zm-.13-.376"/><path fill="#6B7394" d="M14.935 14.096a.91.91 0 0 1-.86-.628H8.772v-.035q-.363.033-.75.035V12.9q.39-.002.75-.036v-.025h.233c1.903-.238 3.202-1.183 4.018-2.631a6.8 6.8 0 0 0 .704-1.87 7 7 0 0 0 .127-.836l.555.028q-.003.078-.025.265a7 7 0 0 1-.115.669 7.4 7.4 0 0 1-.764 2.027c-.582 1.033-1.394 1.837-2.455 2.348h3.025a.915.915 0 0 1 .86-.628c.503 0 .912.422.912.942s-.409.941-.912.941"/><path fill="#F69DD5" d="M13.989 8.32c-.795 0-1.44-.64-1.44-1.428v-.015c0-.79.643-1.428 1.44-1.428.795 0 1.44.64 1.44 1.428v.015c0 .79-.643 1.427-1.44 1.427m0-.818a.61.61 0 0 0 .617-.61v-.015a.614.614 0 0 0-.617-.61.61.61 0 0 0-.617.61v.015c0 .336.276.61.617.61M7.404 14.5c-.794 0-1.44-.639-1.44-1.427v-.015c0-.79.643-1.428 1.44-1.428.795 0 1.44.64 1.44 1.428v.015c0 .79-.643 1.427-1.44 1.427m0-.817a.61.61 0 0 0 .618-.61v-.015a.614.614 0 0 0-.618-.61.61.61 0 0 0-.617.61v.015c0 .336.276.61.617.61"/></svg>