<svg xmlns="http://www.w3.org/2000/svg" width="16" height="16" fill="none"><path fill="#303236" fill-rule="evenodd" d="M3.2 1A2.2 2.2 0 0 0 1 3.2V11a2.2 2.2 0 0 0 2.2 2.2h3.382a3 3 0 0 1 .136-1.826A3.99 3.99 0 0 1 5.5 8.5v-4H7c1.576 0 2.997.663 4 1.725A5.48 5.48 0 0 1 14.943 4.5 2.2 2.2 0 0 0 12.8 2.8H9.014L7.214 1zm10.753 11.874A1.503 1.503 0 0 0 12.5 11c.745 0 1.415-.326 1.873-.844A2.5 2.5 0 0 0 15 8.5V6a3.99 3.99 0 0 0-3.109 1.483A3.98 3.98 0 0 0 11 10c0-.954-.334-1.83-.891-2.517A3.989 3.989 0 0 0 7 6v2.5c0 .635.237 1.215.627 1.656A2.5 2.5 0 0 0 9.5 11a1.5 1.5 0 0 0-1.327 2.2h2.654c.11-.209.173-.447.173-.7 0 .253.063.491.173.7H12.8c.423 0 .818-.12 1.153-.326" clip-rule="evenodd"/><path fill="#89DDFF" d="M11 10a4 4 0 0 0-4-4v2.5A2.5 2.5 0 0 0 9.5 11a1.5 1.5 0 1 0 1.5 1.5 1.5 1.5 0 1 0 1.5-1.5A2.5 2.5 0 0 0 15 8.5V6a4 4 0 0 0-4 4"/></svg>