<svg xmlns="http://www.w3.org/2000/svg" width="16" height="16" fill="none"><path fill="#303236" fill-rule="evenodd" d="M3.2 1A2.2 2.2 0 0 0 1 3.2V11a2.2 2.2 0 0 0 2.2 2.2H5V7a2 2 0 0 1 2-2h7c.364 0 .706.097 1 .268V5a2.2 2.2 0 0 0-2.2-2.2H9.014L7.214 1z" clip-rule="evenodd"/><rect width="8.556" height="8.556" x="6.222" y="6.222" fill="#F5F7F9" opacity=".2" rx="1"/><rect width="2.444" height="2.444" x="7.444" y="7.444" fill="#89DDFF" rx="1"/><rect width="2.444" height="2.444" x="11.111" y="7.444" fill="#C3E88D" rx="1"/><rect width="2.444" height="2.444" x="11.111" y="11.111" fill="#FF8B8B" rx="1"/><rect width="2.444" height="2.444" x="7.444" y="11.111" fill="#F69DD5" rx="1"/></svg>