<svg xmlns="http://www.w3.org/2000/svg" width="16" height="16" fill="none"><path fill="#80CBC4" fill-rule="evenodd" d="M3.2 1A2.2 2.2 0 0 0 1 3.2V11a2.2 2.2 0 0 0 2.2 2.2h6.45l.576-1.52-.168-.091c-.629.35-1.31.604-2.018.752q-.165.037-.333.043a1.85 1.85 0 0 1-1.83-1.184H3.2A.2.2 0 0 1 3 11V3.2c0-.11.09-.2.2-.2h3.186l1.61 1.611h.369a1.846 1.846 0 0 1 3.387 0h.946a1.846 1.846 0 0 1 1.825 2.12h.264l.213.565V5a2.2 2.2 0 0 0-2.2-2.2H9.014L7.214 1zm11.758 10.43L13.75 8.23h-.62l-.13.346v2.138l.44-1.26.83 2.394h-1.666l.228-.652-.032.003h-.788l-.758 2h.87l.19-.543h1.933c.359-.314.615-.742.711-1.227M13 6.289v.337a.35.35 0 0 0 0-.337" clip-rule="evenodd"/><path fill="#80CBC4" d="M13.75 8.231h-.62l-.727 1.925a5 5 0 0 1-1.838-.845 5 5 0 0 0 1.231-2.508h.902a.346.346 0 1 0 0-.692h-2.294v-.765a.346.346 0 1 0-.692 0v.765H7.417a.346.346 0 0 0 0 .692h.904a4.97 4.97 0 0 0 1.228 2.508 5.1 5.1 0 0 1-1.983.881.348.348 0 0 0 .074.693.3.3 0 0 0 .077-.009 5.6 5.6 0 0 0 2.341-1.082 5.5 5.5 0 0 0 2.1 1.021L10.95 14h.895l.467-1.343h2.24L15.026 14h.903zm-2.648-1.428a4.1 4.1 0 0 1-1.039 2.053 4.1 4.1 0 0 1-1.038-2.053zm1.502 5.046.836-2.394.83 2.394z"/></svg>