<svg xmlns="http://www.w3.org/2000/svg" width="16" height="16" fill="none"><path fill="#303236" fill-rule="evenodd" d="M3.2 1A2.2 2.2 0 0 0 1 3.2V11a2.2 2.2 0 0 0 2.2 2.2H5V7a2 2 0 0 1 2-2h7c.364 0 .706.097 1 .268V5a2.2 2.2 0 0 0-2.2-2.2H9.014L7.214 1z" clip-rule="evenodd"/><path fill="#4B70B9" fill-rule="evenodd" d="M7.222 6.222a1 1 0 0 0-1 1v6.556a1 1 0 0 0 1 1h6.556a1 1 0 0 0 1-1V7.222a1 1 0 0 0-1-1zM9.791 8.65a.663.663 0 0 0-.882 0l-1.556 1.383a.618.618 0 0 0 0 .936L8.91 12.35a.664.664 0 0 0 .882-.993l-.966-.858.966-.859a.663.663 0 0 0 0-.992m2.3 0a.663.663 0 1 0-.882.992l.966.859-.966.858a.663.663 0 1 0 .882.992l1.556-1.382a.618.618 0 0 0 0-.936z" clip-rule="evenodd"/></svg>