<svg xmlns="http://www.w3.org/2000/svg" width="16" height="16" fill="none"><path fill="#80CBC4" d="M9.015 2.8H12.8A2.2 2.2 0 0 1 15 5v1.77l-2-1.138V5a.2.2 0 0 0-.2-.2h-1.448a2.2 2.2 0 0 0-.49-.058q-.247 0-.49.058H8.185L6.386 3H3.2a.2.2 0 0 0-.2.2V11c0 .11.09.2.2.2H5v2H3.2A2.2 2.2 0 0 1 1 11V3.2A2.2 2.2 0 0 1 3.2 1h4.014z"/><path fill="#80CBC4" fill-rule="evenodd" d="M11.081 6.683a.45.45 0 0 0-.222.058L7.162 8.843a.45.45 0 0 0-.222.389v4.219c0 .157.084.301.222.38l3.697 2.11a.45.45 0 0 0 .444 0L15 13.83a.44.44 0 0 0 .222-.38V9.23A.45.45 0 0 0 15 8.844l-3.697-2.102a.45.45 0 0 0-.222-.058" clip-rule="evenodd" opacity=".6"/><mask id="a" width="10" height="10" x="6" y="6" maskUnits="userSpaceOnUse" style="mask-type:luminance"><path fill="#fff" fill-rule="evenodd" d="M11.081 6.683a.45.45 0 0 0-.222.058L7.162 8.843a.45.45 0 0 0-.222.389v4.219c0 .157.084.301.222.38l3.697 2.11a.45.45 0 0 0 .444 0L15 13.83a.44.44 0 0 0 .222-.38V9.23A.45.45 0 0 0 15 8.844l-3.697-2.102a.45.45 0 0 0-.222-.058" clip-rule="evenodd"/></mask><g mask="url(#a)"><path fill="#80CBC4" fill-rule="evenodd" d="m10.702 5.891 4.832 8.368-4.152 2.397L6.55 8.288z" clip-rule="evenodd"/></g></svg>