<svg xmlns="http://www.w3.org/2000/svg" width="16" height="16" fill="none"><path fill="#80CBC4" d="M9.014 2.8H12.8c.957 0 1.768.612 2.071 1.465a1.7 1.7 0 0 0-1.048.485 3.93 3.93 0 0 0-2.687.05h-2.95L6.386 3H3.2a.2.2 0 0 0-.2.2V11c0 .11.09.2.2.2h2.352a3.9 3.9 0 0 0 .196 1.626q-.167.172-.277.374H3.2A2.2 2.2 0 0 1 1 11V3.2A2.2 2.2 0 0 1 3.2 1h4.013zm5.925 8.706a2.2 2.2 0 0 1-2.11 1.692 2.3 2.3 0 0 0-.05-1.163q.146-.15.248-.321a2.28 2.28 0 0 0 1.912-.208M7.383 13.15l.005.007-.06-.075zm3.09-1.95.653.653.172.172zm-3.633.472-.004-.071q.001.035.004.07m-.001-.23q0-.037.003-.074zm6.861-.909q-.016 0-.034-.002zm.162-.003-.018.002zm-.334-.022-.024-.006zm.5-.01-.016.006zm-.667-.047-.024-.011z"/><path fill="#80CBC4" fill-rule="evenodd" d="M15.322 5.678a.417.417 0 0 1 0 .589l-.65.65c.74 1.023.649 2.46-.272 3.381a.976.976 0 0 1-1.329-.046l-2.323-2.323a.975.975 0 0 1-.046-1.33 2.616 2.616 0 0 1 3.38-.27l.651-.651a.417.417 0 0 1 .59 0" clip-rule="evenodd" opacity=".6"/><path fill="#80CBC4" d="M7.329 13.082a2.6 2.6 0 0 0 .589.59l-.651.65a.417.417 0 0 1-.59-.589z"/><path fill="#80CBC4" fill-rule="evenodd" d="M8.975 9.702a.97.97 0 0 0-1.375 0 2.616 2.616 0 0 0 3.698 3.698.97.97 0 0 0 0-1.375z" clip-rule="evenodd"/><path fill="#80CBC4" d="m11.126 11.852-.59-.589.725-.724a.417.417 0 0 1 .59.589zM10.461 9.15a.417.417 0 0 1 0 .59l-.724.723-.59-.589.725-.724a.417.417 0 0 1 .59 0"/></svg>