<svg xmlns="http://www.w3.org/2000/svg" width="16" height="16" fill="none"><path fill="#80CBC4" fill-rule="evenodd" d="M3.2 1A2.2 2.2 0 0 0 1 3.2V11a2.2 2.2 0 0 0 2.2 2.2H5v-2H3.2A.2.2 0 0 1 3 11V3.2c0-.11.09-.2.2-.2h3.186l1.8 1.8H12.8c.11 0 .2.09.2.2h1c.364 0 .706.097 1 .268V5a2.2 2.2 0 0 0-2.2-2.2H9.014L7.214 1z" clip-rule="evenodd"/><path fill="#80CBC4" d="M13.017 12.588c.453.604-.755 1.043-1.242.17l-.662.384.04.067q.376.63 1.165.736c1.152.137 1.904-.597 1.496-1.64-.29-.596-1.05-.71-1.493-1.003-.26-.152-.207-.473.003-.602.162-.1.537-.113.73.286l.632-.408c-.5-.9-1.68-.718-2.033-.31-.481.566-.344 1.196.08 1.602.329.315.846.422 1.284.718m-2.99 1.274c.365-.148.578-.453.635-.906.005-.046.008-2.974.008-2.974h-.802l-.006 2.897c-.019.187-.13.322-.295.348-.28.045-.465-.037-.66-.4l-.653.395c.28.658 1.124.9 1.773.64M7.098 6.375h6.804c.4 0 .723.322.723.723v6.804c0 .4-.322.723-.723.723H7.098a.72.72 0 0 1-.723-.723V7.098c0-.4.322-.723.723-.723"/></svg>