<svg xmlns="http://www.w3.org/2000/svg" width="16" height="16" fill="none"><path fill="#303236" d="M9.014 2.8H12.8A2.2 2.2 0 0 1 15 5v.87l-3.077-1.367v.001a2.27 2.27 0 0 0-1.622-.086l-.223.085L6.553 6.07a1.7 1.7 0 0 0-.77.677l-.07.13-.004.006-.003.007-.014.027-.007.015a1.7 1.7 0 0 0-.151.706v4.361c0 .434.124.848.344 1.2H3.2A2.2 2.2 0 0 1 1 11V3.2A2.2 2.2 0 0 1 3.2 1h4.014zm-1.763 9.995q-.033-.022-.065-.047.031.025.065.047m4.144-3.579A1 1 0 0 1 11 9.3l.1-.005q.151-.015.295-.078m3.589-1.923.008.007a.4.4 0 0 0-.073-.042z"/><path fill="#F69DD5" d="M15.123 7.454a.42.42 0 0 0-.204-.196l-3.524-1.566a.97.97 0 0 0-.79 0L7.081 7.258a.42.42 0 0 0-.204.196.42.42 0 0 0 .204.196l3.524 1.565a.97.97 0 0 0 .79 0l3.524-1.565c.09-.04.162-.11.204-.196" opacity=".2"/><path fill="#F69DD5" d="M6.877 7.454a.42.42 0 0 0 .204.196l3.524 1.565A1 1 0 0 0 11 9.3v5.093a1 1 0 0 1-.395-.083l-3.194-1.42A.97.97 0 0 1 6.833 12V7.639q0-.093.037-.171z" opacity=".4"/><path fill="#F69DD5" d="M15.123 7.454a.42.42 0 0 1-.204.196l-3.524 1.566a1 1 0 0 1-.395.083v5.093a1 1 0 0 0 .395-.084l3.195-1.42a.97.97 0 0 0 .577-.888V7.639a.4.4 0 0 0-.035-.167z" opacity=".3"/><path fill="#F69DD5" d="m13.692 6.713-1.026-.456-3.919 1.742a.42.42 0 0 0-.247.38v1.76a.417.417 0 0 0 .833 0V8.65z"/></svg>