<svg xmlns="http://www.w3.org/2000/svg" width="16" height="16" fill="none"><g fill="#80CBC4" clip-path="url(#a)"><path d="M9.015 2.8H12.8A2.2 2.2 0 0 1 15 5v3.637h-1.204q-.04-.055-.08-.109l-.165-.178a1 1 0 0 0-.219-.536V5.951a1.57 1.57 0 0 0-.355-.994l-.104-.115-.064-.063a1.57 1.57 0 0 0-.954-.453L11.7 4.32h-.748a1.57 1.57 0 0 0-.994.355l-.114.105-.064.063a1.57 1.57 0 0 0-.46 1.11v.019a1.6 1.6 0 0 0-.34-.074l-.155-.008h-.103c-.365 0-.716.127-.995.356l-.115.104-.511.511a1.57 1.57 0 0 0-.46 1.11v.094c0 .198.038.392.109.573h-.799a1.57 1.57 0 0 0-.994.355l-.116.105-.062.063c-.294.294-.46.693-.46 1.109v.743c0 .416.166.815.46 1.11l.062.063.116.103c.28.229.63.355.994.356h.796a1.6 1.6 0 0 0-.099.407l-.007.15H3.2A2.2 2.2 0 0 1 1 11V3.2A2.2 2.2 0 0 1 3.2 1h4.014zm5.228 9.856.006-.012h.01z"/><path d="M8.937 13.939h-.104l-.511-.516v-.104l.783-.774h.543l.068.068v.543l-.774.783zm-.615-5.762v-.095l.511-.511h.104l.774.773v.544l-.068.067H9.1zm4.508 4.114h-.747l-.063-.059V10.5c0-.308-.123-.543-.498-.557-.19 0-.408 0-.648.01l-.031.035v2.245l-.063.064h-.752l-.059-.064v-2.96l.06-.063h1.674a1.177 1.177 0 0 1 1.181 1.177v1.846l-.059.064zM9.04 11.187H6.063L6 11.123v-.742l.063-.063h2.978l.064.063v.742zm7.758 0h-2.978l-.063-.064v-.742l.063-.063h2.978l.063.063v.742zm-5.798-2.901V6.063L11.065 6h.746l.064.063v2.218l-.064.063h-.746zm0 7.155v-2.218l.064-.063h.746l.064.059v2.222l-.064.064h-.746z"/></g><defs><clipPath id="a"><path fill="#fff" d="M0 0h16v16H0z"/></clipPath></defs></svg>