<svg xmlns="http://www.w3.org/2000/svg" width="16" height="16" fill="none"><path fill="#303236" d="M9.014 2.8H12.8A2.2 2.2 0 0 1 15 5v1.447a2.14 2.14 0 0 0-.931-.321l-.22-.01q-.267.001-.515.064l-.28-.162a2.15 2.15 0 0 0-1.835-1.502l-.218-.011c-.966 0-1.784.636-2.056 1.513l-.28.162a2 2 0 0 0-.294-.054l-.22-.01c-1.113 0-2.03.846-2.14 1.93l-.01.22.01.22c.051.5.275.948.609 1.287v.452c-.335.339-.558.788-.609 1.289l-.01.22.01.22c.049.48.256.912.568 1.246h-3.38A2.2 2.2 0 0 1 1 11V3.2A2.2 2.2 0 0 1 3.2 1h4.015zm.897 10.4H9.91l-1.166-.674-.008.004.008-.005zm3.352-.669-.008-.005-.618.357.618-.358zm-4.937.177-.028.005zm5.374.005-.026-.004zm-5.219-.046-.021.008zm5.056.007-.018-.007zm-4.408-.784 1.221.707-1.222-.707.001-.014zm2.519.707-.005-.005.005.004.98-.567zm-.14-.102.016.01zm1.364-.606h-.002l-.001-.017q0 .008.003.017m-.001-.302q-.002.007-.003.014l.002-.014-1.283-.79zm1.953-.022.005.023zm-7.653.022.002-.015q0 .008-.002.015m7.399-.532.015.018zm-.227-.179.02.013zm-.865-1.692v1.631zl-.004-.002zm-.213-.12-.017-.011-.926.57.927-.571zM9.13 8.412l.53.326zV8.4zm3.742 0-.53.326.529-.326-.002-.014q0 .008.003.014m1.872.278-.007.015zm.087-.288-.006.033zm-7.657.025q0-.01-.003-.02zm5.699-.317-.003.016v-.017zm-3.743 0v.012l-.001-.013 1.222-.707zm1.358-.609-.01-.006zM8.46 7.324l.023.009zm-.162-.038.028.005z"/><g fill="#6B7394" fill-rule="evenodd" clip-rule="evenodd" opacity=".6"><path d="M8.15 8.637c.206 0 .372.167.372.372v1.982a.372.372 0 0 1-.743 0V9.01c0-.205.166-.372.372-.372M13.85 8.637c.205 0 .371.167.371.372v1.982a.372.372 0 0 1-.743 0V9.01c0-.205.166-.372.371-.372"/><path d="M8.476 8.446a.37.37 0 0 1 .511-.121l1.575.969a.372.372 0 1 1-.39.633l-1.574-.97a.37.37 0 0 1-.122-.51"/><path d="M10.684 10.195a.37.37 0 0 1-.122.511l-1.575.97a.372.372 0 0 1-.39-.634l1.576-.969a.37.37 0 0 1 .51.122M13.525 8.446a.37.37 0 0 1-.122.512l-1.575.969a.372.372 0 1 1-.39-.633l1.575-.97a.37.37 0 0 1 .512.122M10.655 6.798a.37.37 0 0 1-.135.508L8.972 8.2a.372.372 0 0 1-.373-.644l1.549-.895a.37.37 0 0 1 .507.136"/><path d="M11.345 6.798a.37.37 0 0 1 .507-.136l1.549.895a.372.372 0 1 1-.372.644l-1.549-.895a.37.37 0 0 1-.135-.508M8.464 11.935a.37.37 0 0 1 .508-.136l1.548.895a.372.372 0 0 1-.372.644l-1.549-.895a.37.37 0 0 1-.135-.508M13.536 11.935a.37.37 0 0 1-.135.508l-1.549.895a.372.372 0 1 1-.372-.644l1.549-.895a.37.37 0 0 1 .507.136"/><path d="M11.316 10.195a.37.37 0 0 1 .512-.122l1.574.97a.372.372 0 1 1-.39.632l-1.574-.969a.37.37 0 0 1-.122-.511"/><path d="M11 10.372c.205 0 .372.166.372.371v1.859a.372.372 0 0 1-.744 0v-1.859c0-.205.167-.371.372-.371M11 7.027c.205 0 .372.166.372.371v1.859a.372.372 0 0 1-.744 0V7.398c0-.205.167-.371.372-.371"/></g><path fill="#F7F7F7" fill-rule="evenodd" d="M12.858 11.734a.991.991 0 1 1 1.983 0 .991.991 0 0 1-1.983 0" clip-rule="evenodd"/><path fill="#F69DD5" fill-rule="evenodd" d="M12.858 8.266a.991.991 0 1 1 1.983 0 .991.991 0 0 1-1.983 0" clip-rule="evenodd"/><path fill="#82AAFF" fill-rule="evenodd" d="M10.009 13.345a.991.991 0 1 1 1.983 0 .991.991 0 0 1-1.983 0" clip-rule="evenodd"/><path fill="#FFCB6B" fill-rule="evenodd" d="M10.009 10a.991.991 0 1 1 1.983 0 .991.991 0 0 1-1.983 0" clip-rule="evenodd"/><path fill="#F7F7F7" fill-rule="evenodd" d="M10.009 6.655a.991.991 0 1 1 1.983 0 .991.991 0 0 1-1.983 0M7.16 11.734a.991.991 0 1 1 1.982 0 .991.991 0 0 1-1.982 0" clip-rule="evenodd"/><path fill="#AEE33E" fill-rule="evenodd" d="M7.16 8.266a.991.991 0 1 1 1.982 0 .991.991 0 0 1-1.982 0" clip-rule="evenodd"/></svg>