<svg xmlns="http://www.w3.org/2000/svg" width="16" height="16" fill="none"><path fill="#4A616C" d="M9.014 2.8H12.8A2.2 2.2 0 0 1 15 5v.022a1.6 1.6 0 0 0-.648-.154l-.126.002a1.63 1.63 0 0 0-.822.274l-.101.074-.007.005c-.25.2-.433.472-.53.776l-.535 1.635H10.77l-.534-1.636V6a1.6 1.6 0 0 0-.434-.692l-.096-.084h-.001L9.6 5.146a1.6 1.6 0 0 0-.7-.267l-.126-.011-.127-.002a1.63 1.63 0 0 0-1.416.906l-.053.117-.003.007-.001.007-1.22 3.182-.013.032-.003.008-.003.008A3.575 3.575 0 0 0 7.045 13.2H3.2A2.2 2.2 0 0 1 1 11V3.2A2.2 2.2 0 0 1 3.2 1h4.015zm-.308 3.366A.33.33 0 0 1 9 6.403l.827 2.531h3.347L14 6.403a.32.32 0 0 1 .294-.236.322.322 0 0 1 .318.202L15 7.38V11a2.2 2.2 0 0 1-2.2 2.2H9.207l-1.287-.963-.011-.009-.005-.003a2.28 2.28 0 0 1-.754-2.627l.013-.032 1.123-2.93.102-.266a.3.3 0 0 1 .086-.123l.04-.03a.33.33 0 0 1 .192-.05"/><path fill="#FA6068" d="m15.849 9.594-.013-.032-1.223-3.193a.32.32 0 0 0-.318-.202.32.32 0 0 0-.294.235l-.827 2.532H9.827L9 6.402a.32.32 0 0 0-.294-.235.32.32 0 0 0-.318.202L7.163 9.566l-.013.032a2.28 2.28 0 0 0 .754 2.627l.004.003.011.008 1.866 1.397.923.699.56.425a.38.38 0 0 0 .458 0l.561-.425.923-.699 1.877-1.405.005-.004a2.276 2.276 0 0 0 .757-2.63"/><path fill="#F78C6C" d="m15.849 9.594-.013-.032a4.15 4.15 0 0 0-1.647.74l-2.687 2.037 1.714 1.294 1.877-1.405.005-.004a2.276 2.276 0 0 0 .75-2.63"/><path fill="#FFCB6B" d="m9.787 13.633.92.699.562.425a.38.38 0 0 0 .457 0l.561-.425.923-.699-1.713-1.294z"/><path fill="#F78C6C" d="M8.81 10.304a4.1 4.1 0 0 0-1.647-.74l-.013.032a2.276 2.276 0 0 0 .754 2.629l.004.003.011.008 1.866 1.397 1.717-1.294z"/></svg>