<svg xmlns="http://www.w3.org/2000/svg" width="16" height="16" fill="none"><path fill="#80CBC4" d="M9.015 2.8H12.8A2.2 2.2 0 0 1 15 5v1.318a1.86 1.86 0 0 0-1.38-.618H13V5a.2.2 0 0 0-.2-.2H8.186L6.386 3H3.2a.2.2 0 0 0-.2.2V11c0 .11.09.2.2.2h2.813l.226 2H3.2A2.2 2.2 0 0 1 1 11V3.2A2.2 2.2 0 0 1 3.2 1h4.014zm5.127 4.557q.01.028.018.057-.007-.03-.018-.058m-.275-.295"/><path fill="#80CBC4" d="M7.491 7c-.309 0-.582.26-.582.564l.645 5.694c.03.227.14.355.338.47l2.443 1.217c.153.067.315.08.492 0l2.437-1.218a.57.57 0 0 0 .31-.533l.608-5.645A.57.57 0 0 0 13.619 7zm1.804 4.3c0 .454-.005.586.094.688.102.077.283.089.574.086v.438h-.491c-.446-.01-.95-.072-.95-.72 0-.393.027-.637-.121-.78-.117-.11-.371-.128-.583-.116v-.435c.29.01.49-.026.583-.112.294-.273-.1-1.006.349-1.35.236-.192.659-.179 1.213-.173v.437c-.293-.007-.509.018-.574.087-.209.207.027.792-.196 1.129q-.102.138-.352.187c.361.068.457.281.454.633m2.955-.634q-.25-.05-.352-.187c-.223-.337.013-.922-.196-1.13-.065-.068-.281-.093-.574-.086v-.437c.554-.006.977-.019 1.213.173.45.344.055 1.077.35 1.35.092.086.291.121.582.112v.435c-.212-.012-.466.006-.583.115-.148.144-.122.388-.122.78.001.649-.503.711-.949.72h-.491v-.437c.29.003.472-.01.574-.086.099-.102.095-.234.094-.689-.003-.352.093-.565.454-.633"/></svg>