<svg xmlns="http://www.w3.org/2000/svg" width="16" height="16" fill="none"><path fill="#303236" d="M9.014 2.8H12.8A2.2 2.2 0 0 1 15 5V9.86l-1.446-2.367V7.49l-.067-.102a1.8 1.8 0 0 0-.62-.549 1.87 1.87 0 0 0-1.688-.052l-.106.053a2 2 0 0 0-.246.161l-.308-.505-.002-.003-.066-.1a1.8 1.8 0 0 0-.62-.549v.001a1.874 1.874 0 0 0-2.411.548l-.067.1v.003l-3.09 5.065c-.15.243-.238.52-.259.805L4 12.49c0 .247.051.488.147.71H3.2A2.2 2.2 0 0 1 1 11V3.2A2.2 2.2 0 0 1 3.2 1h4.014z"/><path fill="#2ECC71" d="M10.633 13h3.698c.117 0 .233-.03.335-.085a.65.65 0 0 0 .245-.232.61.61 0 0 0 0-.633l-2.484-4.07a.65.65 0 0 0-.245-.231.7.7 0 0 0-.67 0 .65.65 0 0 0-.244.231l-.635 1.042L9.39 6.986a.65.65 0 0 0-.245-.232.7.7 0 0 0-.67 0 .65.65 0 0 0-.244.231l-3.09 5.065a.61.61 0 0 0-.001.633c.06.097.144.177.245.232A.7.7 0 0 0 5.72 13h2.322c.92 0 1.598-.382 2.065-1.128l1.133-1.857.607-.993 1.822 2.984h-2.43zm-2.629-.995h-1.62l2.428-3.98 1.212 1.99-.811 1.33c-.31.484-.662.66-1.209.66"/></svg>