<svg xmlns="http://www.w3.org/2000/svg" width="16" height="16" fill="none"><path fill="#4A616C" d="M9.015 2.8H12.8A2.2 2.2 0 0 1 15 5v3.634h-.606l-.117-.001a5 5 0 0 0-.028-.66l-.05-.308-.002-.003-.054-.222a3.4 3.4 0 0 0-.755-1.393 3.27 3.27 0 0 0-1.529-.93v.002l-.271-.067-.06-.014a2 2 0 0 0-.168-.028L11.192 5h-.012l-.042.002-.04-.002h-.285l-.128.006a3 3 0 0 0-.645.125l-.231.083h-.002a3.26 3.26 0 0 0-1.438 1.134 1.5 1.5 0 0 0-.755-.215 1.5 1.5 0 0 0-1.093.462c-.118.123-.197.245-.215.274l-.112.171-.427.664-.05.072c-.049.073-.186.269-.292.51a1.5 1.5 0 0 0-.125.59v.015c0 .362.134.693.352.948 0 .253.002.498-.003.74-.02.993.735 2.108 2.03 2.077h.067l.01.43q.004.057.01.114H3.2A2.2 2.2 0 0 1 1 11V3.2A2.2 2.2 0 0 1 3.2 1h4.014zm.167 6.785-.001.407V8.77z"/><path fill="#80CBC4" fill-rule="evenodd" d="M12.918 10.267c.046 0 .061.012.061.065l.001.962q.003.884-.003 1.765c-.011 1.044-.651 1.773-1.537 1.919a1.77 1.77 0 0 1-1.906-1.085 2 2 0 0 1-.159-.708c-.016-.39-.014-.781-.011-1.173q.002-.284.002-.567c0-.075-.017-.093-.086-.093h-.554q-.462-.005-.923.004c-.308.008-.541-.262-.534-.587.007-.34.005-.682.004-1.024v-.614c0-.065-.015-.086-.075-.081q-.097.005-.195.002H6.92v-.016c.045-.1.106-.19.167-.28q.037-.052.07-.106.21-.328.422-.653l.114-.176c.058-.09.077-.09.137.001q.372.574.743 1.15l.008.011c.014.02.028.041.015.067-.013.022-.038.021-.06.02h-.179c-.07.002-.077.008-.077.086v1.016c0 .049.015.074.062.074h.936c.063.002.063-.043.063-.09V8.93c-.001-.242-.002-.485.04-.724q.194-1.089 1.145-1.482c.144-.06.294-.09.447-.104h.285a.1.1 0 0 0 .081 0h.014q.046.012.092.02.086.018.17.041c.697.202 1.146.677 1.316 1.453.05.236.049.476.048.716l-.001.161c0 .034-.015.04-.042.04h-.996c-.04 0-.044-.02-.044-.055v-.109q.001-.164-.001-.328c-.01-.448-.286-.745-.697-.756a.74.74 0 0 0-.35.07c-.27.13-.394.367-.402.679a18 18 0 0 0-.003.56v3.827c-.001.119.004.236.034.352a.69.69 0 0 0 .57.519.75.75 0 0 0 .601-.162.68.68 0 0 0 .244-.53q.008-.555.006-1.109l.001-.604c.001-.052-.024-.052-.057-.052h-.183q-.273 0-.545.002c-.055 0-.073-.017-.072-.079q.004-.466.002-.934c0-.053.006-.077.065-.077q.904.004 1.81.002m3.005 2.295.075.001c.006.024-.003.037-.011.05l-.008.01-.48.745-.281.436c-.023.035-.04.056-.072.006l-.488-.756-.286-.442-.003-.005c-.007-.009-.015-.02-.008-.043h.073q.082-.004.166.002c.067.006.08-.02.08-.09a67 67 0 0 1 0-1.046c0-.065-.014-.083-.075-.083l-.322.001-.321.002c-.072 0-.086-.022-.084-.095q.002-.466 0-.933c0-.05.01-.068.06-.068h1.232c.282.002.496.24.498.548q.002.837-.002 1.675c0 .068.017.092.079.087q.09-.005.178-.002" clip-rule="evenodd"/></svg>