<svg xmlns="http://www.w3.org/2000/svg" width="16" height="16" fill="none"><path fill="#80CBC4" fill-rule="evenodd" d="M3.2 1A2.2 2.2 0 0 0 1 3.2V11a2.2 2.2 0 0 0 2.2 2.2h3.883l-.248-.12v-.003l-.885-.433V11.2H3.2A.2.2 0 0 1 3 11V3.2c0-.11.09-.2.2-.2h3.186l1.8 1.8H12.6l.065-.062.165.064q.045.008.08.032L15 5.652V5a2.2 2.2 0 0 0-2.2-2.2H9.014L7.214 1zm11.55 11.02a2.2 2.2 0 0 1-1.95 1.18h-.416l-2.11-2h2.327l.164.123V11.2h.035a.2.2 0 0 0 .2-.2V6.265l1.75.685zm-7.5-.82v.633l.71.348 1.32-.981zm3.245 2H8.77l.966-.719z" clip-rule="evenodd"/><path fill="#80CBC4" fill-rule="evenodd" d="m14.75 6.95-1.788-.7-3.119 2.967L7.965 7.82l-.714.351-.001 3.662.71.348 1.878-1.395 3.127 2.964 1.785-.697zm-1.986 1.726L11 9.995l1.765 1.329zm-4.63 2.096-.002-1.544.883.767z" clip-rule="evenodd"/></svg>