<svg xmlns="http://www.w3.org/2000/svg" width="16" height="16" fill="none"><path fill="#303236" d="M9.015 2.8H12.8A2.2 2.2 0 0 1 15 5v3.151l-.125-.04a2.28 2.28 0 0 0-.475-1.647l-.004-.006-.004-.006a2.13 2.13 0 0 0-1.58-.79l-.02-.002h-.02a2.4 2.4 0 0 0-1.039.236 2.4 2.4 0 0 0-.78-.722l-.018-.01-.018-.01a2.13 2.13 0 0 0-1.764-.105l-.013.006a2.28 2.28 0 0 0-1.235 1.19 2.3 2.3 0 0 0-.374-.063l-.043-.003h-.044a2.14 2.14 0 0 0-1.391.498l-.158.146-.005.006a2.38 2.38 0 0 0-.666 1.692 2.35 2.35 0 0 0 1.191 2.05c-.29.422-.52.887-.651 1.377-.11.413-.119.842-.033 1.252h-2.53A2.2 2.2 0 0 1 1 11V3.2A2.2 2.2 0 0 1 3.2 1h4.014zm.528 6.736c.396-.148.785-.208 1.125-.15q.007.002.016.003a1 1 0 0 1 .107.024l.046.014q.03.008.06.02l.015.005c.324.12.63.366.898.693q.042.05.082.102c.15.199.289.423.409.663l.002.005a5 5 0 0 1 .43 1.262c.068.344.095.691.077 1.022l-.01.001H6.98a1.5 1.5 0 0 1-.057-.941c.133-.498.426-.99.805-1.423a5 5 0 0 1 1.001-.878l.005-.003a4.2 4.2 0 0 1 .809-.419m4.784 3.045a2 2 0 0 1-.316.254c-.003-.077-.003-.155-.009-.232q.163 0 .325-.022m-.434-3.306a1.11 1.11 0 0 1 .823.053q.167.096.284.248v1.277a1.15 1.15 0 0 1-1.223.525l-.007-.002a.92.92 0 0 1-.65-.669 1.18 1.18 0 0 1 .14-.901 1.1 1.1 0 0 1 .633-.53M7.435 7.378A1.113 1.113 0 0 1 8.457 8.52a1.18 1.18 0 0 1-.33.85.94.94 0 0 1-.68.283 1 1 0 0 1-.217-.029l-.007-.002a1.15 1.15 0 0 1-.8-1.11 1.18 1.18 0 0 1 .33-.85.94.94 0 0 1 .682-.284m5.333-.518a.93.93 0 0 1 .69.346 1.08 1.08 0 0 1 .208.887 1.17 1.17 0 0 1-.389.69c-.215.186-.49.29-.775.288q-.025 0-.05-.004a1 1 0 0 1-.157-.027.93.93 0 0 1-.629-.562 1.1 1.1 0 0 1-.08-.503q0-.015.002-.029.004-.035.01-.069a1.18 1.18 0 0 1 1.17-1.017m-2.792-.752a.9.9 0 0 1 .38.107 1.18 1.18 0 0 1 .504 1.465l-.025.064-.013.027a1.08 1.08 0 0 1-.571.537.93.93 0 0 1-.575.03l-.024-.007a1 1 0 0 1-.172-.07 1.18 1.18 0 0 1-.52-1.427l.016-.037a1.08 1.08 0 0 1 .609-.628.9.9 0 0 1 .39-.06"/><path fill="#6B7394" d="M9.48 8.262a.928.928 0 0 0 .77.045 1.07 1.07 0 0 0 .61-.628 1.18 1.18 0 0 0-.504-1.465.93.93 0 0 0-.77-.045 1.07 1.07 0 0 0-.61.628 1.18 1.18 0 0 0 .504 1.465M8.127 9.37a1.18 1.18 0 0 0 .33-.85 1.113 1.113 0 0 0-1.023-1.142.94.94 0 0 0-.68.284 1.18 1.18 0 0 0-.33.85 1.15 1.15 0 0 0 .799 1.11.9.9 0 0 0 .593-.041.9.9 0 0 0 .311-.211M11.812 8.726a.93.93 0 0 0 .69.345 1.18 1.18 0 0 0 1.17-1.017 1.07 1.07 0 0 0-.214-.848.93.93 0 0 0-.69-.346 1.18 1.18 0 0 0-1.17 1.017 1.07 1.07 0 0 0 .214.849M15.164 9.914a.94.94 0 0 0-.448-.585 1.11 1.11 0 0 0-1.456.476 1.18 1.18 0 0 0-.14.902.94.94 0 0 0 .658.67 1.15 1.15 0 0 0 1.247-.56 1.18 1.18 0 0 0 .139-.903M10.791 9.413c-1.3-.348-3.433 1.221-3.868 2.846a1.5 1.5 0 0 0 1.06 1.837c.308.09.634.095.946.018.197-.054.405-.051.6.008.2.047.381.149.525.294.23.222.516.38.827.457a1.5 1.5 0 0 0 1.837-1.061c.436-1.625-.627-4.05-1.927-4.399"/></svg>