<svg xmlns="http://www.w3.org/2000/svg" width="16" height="16" fill="none"><path fill="#303236" fill-rule="evenodd" d="M3.2 1A2.2 2.2 0 0 0 1 3.2V11a2.2 2.2 0 0 0 2.2 2.2h6.45l.576-1.52-.168-.091c-.629.35-1.31.604-2.018.752q-.165.037-.333.043A1.848 1.848 0 0 1 7.3 8.715l.059-.013a7 7 0 0 1-.177-.414 1.846 1.846 0 0 1 .235-3.677h.948a1.846 1.846 0 0 1 3.387 0h.946a1.846 1.846 0 0 1 1.825 2.12h.264l.213.565V5a2.2 2.2 0 0 0-2.2-2.2H9.014L7.214 1zm11.758 10.43L13.75 8.23h-.62l-.727 1.925a7 7 0 0 1-.34-.091 5 5 0 0 1-.378-.134 5 5 0 0 1-1.12-.62q.258-.283.47-.598l.025-.04a5 5 0 0 0 .736-1.87h.902a.346.346 0 1 0 0-.692h-2.294v-.765q0-.02-.002-.043a.346.346 0 0 0-.69.043v.765H7.417a.346.346 0 0 0 0 .692h.904a5 5 0 0 0 .734 1.87l.026.04q.21.316.468.598a5.1 5.1 0 0 1-1.973.88l-.01.001-.024.004a.348.348 0 0 0 .098.689.3.3 0 0 0 .068-.007l.009-.002a5.6 5.6 0 0 0 1.62-.602l.003-.002a5.6 5.6 0 0 0 .718-.478 5.5 5.5 0 0 0 .718.478l.011.006q.056.03.113.06a5.5 5.5 0 0 0 1.258.477l-.904 2.385h.87l.19-.543h1.933c.359-.314.615-.742.711-1.227m-.689.419-.829-2.394-.836 2.394zM10.903 7.51q.131-.344.199-.708H9.025a4.1 4.1 0 0 0 1.016 2.029l.015.016.008.008.001-.002.076-.083a4.1 4.1 0 0 0 .762-1.26" clip-rule="evenodd"/><path fill="#C792EA" d="M13.75 8.231h-.62l-.727 1.925a5 5 0 0 1-1.838-.845 5 5 0 0 0 1.231-2.508h.902a.346.346 0 1 0 0-.692h-2.294v-.765a.346.346 0 1 0-.692 0v.765H7.417a.346.346 0 0 0 0 .692h.904a4.97 4.97 0 0 0 1.228 2.508 5.1 5.1 0 0 1-1.983.881.348.348 0 0 0 .074.693.3.3 0 0 0 .077-.009 5.6 5.6 0 0 0 2.341-1.082 5.5 5.5 0 0 0 2.1 1.021L10.95 14h.895l.467-1.343h2.24L15.026 14h.903zm-2.648-1.428a4.1 4.1 0 0 1-1.039 2.053 4.1 4.1 0 0 1-1.038-2.053zm1.502 5.046.836-2.394.83 2.394z"/></svg>