<svg xmlns="http://www.w3.org/2000/svg" width="16" height="16" fill="none"><path fill="#303236" fill-rule="evenodd" d="M3.2 1A2.2 2.2 0 0 0 1 3.2V11a2.2 2.2 0 0 0 2.2 2.2h4l-1.427-1.427a1.8 1.8 0 0 1 0-2.546l4.454-4.454a1.8 1.8 0 0 1 2.546 0L15 7V5a2.2 2.2 0 0 0-2.2-2.2H9.014L7.214 1z" clip-rule="evenodd"/><path fill="#FF8B8B" d="M15.83 10.1 11.9 6.17a.58.58 0 0 0-.819 0l-.816.816L11.3 8.02a.688.688 0 0 1 .872.877l.997.998a.688.688 0 0 1 .713 1.139.69.69 0 0 1-1.126-.75l-.93-.93v2.448a.69.69 0 1 1-.567-.02V9.312a.69.69 0 0 1-.374-.904l-1.02-1.021L7.17 10.08a.58.58 0 0 0 0 .82l3.93 3.93a.58.58 0 0 0 .82 0l3.91-3.912a.58.58 0 0 0 0-.82"/></svg>