<svg xmlns="http://www.w3.org/2000/svg" width="16" height="16" fill="none"><g clip-path="url(#a)"><path fill="#303236" fill-rule="evenodd" d="M3.2 1A2.2 2.2 0 0 0 1 3.2V11a2.2 2.2 0 0 0 2.2 2.2h2.724A6 6 0 0 1 15 5.528V5a2.2 2.2 0 0 0-2.2-2.2H9.014L7.214 1z" clip-rule="evenodd"/><path fill="#697DA5" d="M11.188 5.5C8.598 5.5 6.5 7.566 6.5 10.114c0 2.038 1.343 3.767 3.206 4.377.234.042.32-.1.32-.222l-.007-.859c-1.303.28-1.579-.544-1.579-.544-.213-.533-.52-.675-.52-.675-.426-.286.032-.28.032-.28.47.032.719.475.719.475.418.706 1.097.502 1.364.383.043-.297.164-.501.297-.616-1.04-.116-2.135-.512-2.135-2.28 0-.504.183-.915.482-1.238-.047-.117-.209-.587.047-1.222 0 0 .393-.123 1.289.473a4.5 4.5 0 0 1 2.346.001c.895-.597 1.289-.473 1.289-.473.256.636.095 1.104.046 1.221.3.323.482.734.482 1.238 0 1.773-1.096 2.163-2.14 2.277.168.143.318.424.318.854 0 .617-.007 1.114-.007 1.266 0 .123.085.267.323.222 1.861-.612 3.203-2.34 3.203-4.378 0-2.548-2.099-4.614-4.688-4.614"/></g><defs><clipPath id="a"><path fill="#fff" d="M0 0h16v16H0z"/></clipPath></defs></svg>