<svg xmlns="http://www.w3.org/2000/svg" width="16" height="16" fill="none"><path fill="#303236" fill-rule="evenodd" d="M3.2 1A2.2 2.2 0 0 0 1 3.2V11a2.2 2.2 0 0 0 2.2 2.2h6.295l-.098-1.026H8.8V8.806h1.937v-1.35l1.485-.914c.29-.179.553-.333.763-.446.103-.055.208-.11.306-.153.048-.02.11-.047.181-.071l.004-.001c.042-.014.21-.071.422-.071.511 0 .887.262 1.102.473V5a2.2 2.2 0 0 0-2.2-2.2H9.014L7.214 1zM15 8.678a2 2 0 0 1-.165.128H15zm-.83 4.043.17-1.747h.478v-.968h-1.94l.028-1.396.428-.263.218-.134a13 13 0 0 0 .346-.22c.196-.13.339-.232.361-.264a.54.54 0 0 0 .062-.259c0-.217-.227-.47-.423-.47-.044 0-.188.067-.4.183q-.163.09-.372.214l-.056.033-.219.133-.914.564v1.879H10v.968h.248c.137 0 .248.017.247.038l.017.194c.03.341.102 1.099.188 1.994h2.1c.518 0 .994-.18 1.37-.479m-4.87-1.6.001.02-.003-.048zm.001.02-.005-.178v-.003z" clip-rule="evenodd"/><path fill="#FA6068" d="M10.73 13.508c-.13-1.352-.236-2.475-.235-2.496s-.11-.038-.247-.038H10v-.968h1.937v-1.88l.914-.563c.557-.343.966-.563 1.047-.563.196 0 .423.253.423.47a.54.54 0 0 1-.062.26c-.034.047-.352.265-.707.483l-.646.397-.014.698-.014.698h1.94v.968h-.478l-.242 2.496-.154 1.593a1 1 0 0 1-.996.903h-1.073a1 1 0 0 1-.995-.904z"/></svg>