<svg xmlns="http://www.w3.org/2000/svg" width="16" height="16" fill="none"><path fill="#4A616C" d="M9.015 2.8H12.8A2.2 2.2 0 0 1 15 5v3.946a3 3 0 0 0-.234-.034 1.6 1.6 0 0 0-.186-.457c-.338-.553-.878-.696-1.072-.738l-.06-.012a2.7 2.7 0 0 0-.018-1.059c-.169-.762-.661-1.374-1.357-1.754l-.083-.042-.32-.132c-1.607-.584-3.42-.042-4.662.615-.712.376-1.38.86-1.9 1.405-.456.476-.943 1.148-1.074 1.953l-.021.163c-.11 1.114.538 1.899 1.008 2.344a2.6 2.6 0 0 0-.26.346l-.01.018-.017.025h.003c-.267.44-.452.998-.385 1.613H3.2A2.2 2.2 0 0 1 1 11V3.2A2.2 2.2 0 0 1 3.2 1h4.014zm1.468 7.87c-.135.512-.293 1.073-.267 1.25-.026-.177.132-.737.267-1.25"/><g clip-path="url(#a)"><path fill="#F69DD5" d="m9.067 10.517-.982.54C7.517 10.5 6.982 10.23 6.67 9.81c-.398-.537-.27-1.242.608-1.938 1.914-1.457 3.774-1.513 4.227-.944.415.523-.301 1.658-1.517 2.066-.746.252-1.457.262-1.825-.154-.05-.068-.126-.007-.1.057.242.726 1.354.677 2.188.476 1.555-.376 2.72-2.37 1.297-3.15-2.08-.973-5.708 1.243-5.863 2.802-.088.888 1.063 1.516 2.024 2.239-.757.404-1.31.778-1.499 1.1-.191.303-.259.625-.116.969.27.608 1.21.324 1.56.075.556-.396.99-1.178.62-2.086l.566-.326.008.007-.03.101c-.177.57-.12 1.108.156 1.505.118.169.375.187.523.057.15-.133.27-.46.461-.87-.048.428-.011.785.244.812.159.016.303-.136.424-.338.317-.532.616-1.19.913-1.897q.089.439.281.801c.032.064.029.106-.016.16l-.551.677c-.265.308-.172.468.183.446.503-.045 1.122-.372.978-1.043-.054-.25-.123-.286-.068-.352a9 9 0 0 0 .584-1.002c.055.285.14.567.287.816-.354.318-.612.653-.599 1.034.02.151.144.25.292.215.391-.06.84-.42.895-.698.031-.158.02-.314-.066-.554 1.586-.53 2.534.656 1.77 1.177a.3.3 0 0 0-.078.058c-.025.032-.014.07.033.07.075 0 .135-.038.19-.07.756-.446.204-1.681-1.01-1.7a2.3 2.3 0 0 0-1.024.212c-.21-.344-.278-.66-.22-.918.029-.12.067-.24.103-.36.016-.06.01-.117-.118-.144a1 1 0 0 0-.427.031c-.103.029-.09.097-.123.19-.081.417-.387.885-.673 1.381a1.2 1.2 0 0 1-.168-.681c.01-.141.07-.326.12-.476.022-.063 0-.105-.118-.138-.202-.028-.4.01-.484.06-.065.041-.082.277-.17.471-.358.787-.748 1.734-.912 1.962-.1-.06.087-.714.243-1.304.055-.176-.165-.286-.337-.161.166-.89-.604-.833-1.208-.07a.2.2 0 0 1-.062.054m-1.101 1.476a1.3 1.3 0 0 1-.466.906c-.702.562-1.111.199-.758-.409.149-.312.646-.631 1.174-.951.041.152.061.301.05.454m1.307.112c-.202-.483.066-1.396.533-1.734.17-.1.246-.075.233.025a3 3 0 0 1-.078.348c-.119.394-.27.775-.435 1.151-.121.257-.208.317-.253.21m2.18.092.508-.593c.021.22-.353.66-.508.593m1.496-.338c-.028.006-.04-.013-.023-.095.068-.242.195-.451.395-.626.093.255-.009.585-.372.721"/></g><defs><clipPath id="a"><path fill="#fff" d="M5.681 4.681H16V15H5.681z"/></clipPath></defs></svg>