<svg xmlns="http://www.w3.org/2000/svg" width="16" height="16" fill="none"><path fill="#303236" fill-rule="evenodd" d="M3.2 1A2.2 2.2 0 0 0 1 3.2V11a2.2 2.2 0 0 0 2.2 2.2H5V7a2 2 0 0 1 2-2h8a2.2 2.2 0 0 0-2.2-2.2H9.014L7.214 1z" clip-rule="evenodd"/><path stroke="#4B70B9" d="M14.125 6.875v7.25h-7.25v-7.25z"/><path fill="#89DDFF" d="M12.777 10.525a3 3 0 0 0-.421-.025q-.233 0-.46.045a1.3 1.3 0 0 0-.38.142.76.76 0 0 0-.26.246.65.65 0 0 0-.096.357q0 .266.175.452.175.188.532.317.132.048.261.099.11.042.21.1.08.046.139.113.045.054.05.12a.2.2 0 0 1-.031.126.3.3 0 0 1-.097.085.6.6 0 0 1-.161.057q-.097.02-.226.02a1.43 1.43 0 0 1-.84-.27v.593q.187.08.392.111a3 3 0 0 0 .941-.004q.207-.036.386-.134c.11-.062.2-.146.262-.245a.7.7 0 0 0 .097-.374.7.7 0 0 0-.056-.282.7.7 0 0 0-.159-.216 1.2 1.2 0 0 0-.25-.17 3 3 0 0 0-.328-.142 4 4 0 0 1-.24-.094q-.105-.044-.18-.092a.4.4 0 0 1-.115-.1.19.19 0 0 1-.004-.23.3.3 0 0 1 .102-.085.6.6 0 0 1 .161-.054q.096-.02.213-.02a1.6 1.6 0 0 1 .555.104q.088.035.167.081v-.554a2 2 0 0 0-.339-.077M10.917 10.542h-2.48v.49h.886v2.176h.704V11.03h.89z"/></svg>