<svg xmlns="http://www.w3.org/2000/svg" width="16" height="16" fill="none"><path fill="#4A616C" d="M9.014 2.8H12.8A2.2 2.2 0 0 1 15 5v.2a3.1 3.1 0 0 0-1.916-.667h-2.548A3.386 3.386 0 0 0 5.81 7.638c0 .95.394 1.809 1.026 2.424a3.1 3.1 0 0 0-.91 3.138H3.2A2.2 2.2 0 0 1 1 11V3.2A2.2 2.2 0 0 1 3.2 1h4.014zm2.887 7.686-.022.011zm.241-.1-.04.015zm-2.947-.663-.2-.01-.004-.001q.1.01.204.01m-.302-.026q-.053-.007-.104-.015.052.008.104.015m1.017-.105-.062.022zm-1.393.014q-.053-.017-.105-.038.052.02.105.038m-.196-.079-.093-.045q.046.023.093.045m1.799-.025-.022.01zm3.136-.065-.172.007q.09 0 .176-.008zm.506-.126-.089.032q.045-.014.09-.032m-5.782.017q-.034-.024-.067-.05.033.027.067.05m6.08-.173-.064.038q.031-.018.063-.038M7.445 8.77 7.4 8.69q.022.04.047.079m-.098-.168q-.026-.053-.05-.105.024.053.05.105m7.375-.213q-.02.045-.043.09.024-.045.043-.09m-7.455.044q-.024-.06-.044-.122.02.061.044.122m-.115-.38-.002-.008-.03-.193q.012.102.032.2m7.658-.936q.012.043.022.085-.01-.042-.022-.085m-.057-.16.033.09q-.015-.045-.034-.09m-.077-.163q.024.046.045.094-.02-.048-.045-.094m-.404-.51.043.038zm-.429-.28.079.037zm-.178-.072q.052.016.102.037-.05-.02-.102-.037m-.156-.045q.052.011.102.025-.05-.014-.102-.025m-3.43-.131.047.022zm-.232-.094.082.03zm-.513-.101q.023 0 .044.003a2 2 0 0 0-.184-.008z"/><g fill="#4B70B9" opacity=".6"><path d="M13.083 9.444h-2.967a.417.417 0 0 1-.417-.416V6.25c0-.23.187-.417.417-.417h2.967c.996 0 1.806.81 1.806 1.806 0 .995-.81 1.805-1.806 1.805M11.884 14.167H8.917c-.996 0-1.806-.81-1.806-1.806 0-.995.81-1.805 1.806-1.805h2.969a.417.417 0 0 1 .416.417l-.001 2.777c0 .23-.187.417-.417.417"/></g><path fill="#89DDFF" d="M9.195 9.722A2.086 2.086 0 0 1 7.11 7.64c0-1.149.935-2.083 2.084-2.083 1.148 0 2.083.934 2.083 2.083a2.086 2.086 0 0 1-2.083 2.083M12.806 14.444a2.086 2.086 0 0 1-2.084-2.083c0-1.149.935-2.083 2.084-2.083 1.148 0 2.083.934 2.083 2.083a2.086 2.086 0 0 1-2.083 2.083"/></svg>