<svg xmlns="http://www.w3.org/2000/svg" width="16" height="16" fill="none"><path fill="#303236" fill-rule="evenodd" d="M3.2 1A2.2 2.2 0 0 0 1 3.2V11a2.2 2.2 0 0 0 2.2 2.2H6V7a2 2 0 0 1 2-2h7a2.2 2.2 0 0 0-2.2-2.2H9.014L7.214 1z" clip-rule="evenodd"/><path fill="#FFCB6B" d="M7 6.643v7.714c0 .17.053.334.146.455.094.12.221.188.354.188h7c.133 0 .26-.068.354-.188a.75.75 0 0 0 .146-.455V6.643a.75.75 0 0 0-.146-.455A.45.45 0 0 0 14.5 6h-7a.45.45 0 0 0-.354.188.75.75 0 0 0-.146.455m3.75 5.786h-2a.23.23 0 0 1-.177-.095.37.37 0 0 1-.073-.227v-.643c0-.085.026-.167.073-.227a.23.23 0 0 1 .177-.094h2c.066 0 .13.034.177.094s.073.142.073.227v.643a.37.37 0 0 1-.073.227.23.23 0 0 1-.177.095m2.5-2.572h-4.5a.23.23 0 0 1-.177-.094.37.37 0 0 1-.073-.227v-.643c0-.085.026-.167.073-.227a.23.23 0 0 1 .177-.095h4.5c.066 0 .13.034.177.095.047.06.073.142.073.227v.643a.37.37 0 0 1-.073.227.23.23 0 0 1-.177.094"/></svg>