<svg xmlns="http://www.w3.org/2000/svg" width="16" height="16" fill="none"><path fill="#4A616C" d="M9.014 2.8H12.8A2.2 2.2 0 0 1 15 5v.135a6.27 6.27 0 0 0-4-1.434A6.307 6.307 0 0 0 4.7 10c0 1.167.321 2.26.877 3.199H3.2A2.2 2.2 0 0 1 1 11V3.2A2.2 2.2 0 0 1 3.2 1h4.014zm2.204 2.711v.001L11 5.506z"/><path fill="#82AAFF" d="M14.945 7.844a4.493 4.493 0 0 1-1.685 6.042l1.373-3.97c.256-.642.342-1.155.342-1.61q0-.255-.03-.462m-3.325.043a7 7 0 0 0 .513-.044c.243-.03.215-.387-.028-.374 0 0-.73.056-1.2.056-.443 0-1.187-.062-1.187-.062-.244-.013-.275.356-.031.368 0 0 .225.026.468.038l.7 1.918-.987 2.95L8.23 7.876c.27-.013.514-.042.514-.042.244-.03.215-.387-.027-.373 0 0-.728.058-1.198.058-.083 0-.182-.004-.287-.007A4.56 4.56 0 0 1 11 5.506c1.17 0 2.235.447 3.036 1.18q-.029-.001-.059-.003c-.442 0-.755.385-.755.797 0 .371.214.685.442 1.055.171.3.37.685.37 1.24 0 .382-.147.831-.341 1.45l-.448 1.494L11.62 7.88zM11 14.493c-.441 0-.867-.063-1.27-.182l1.349-3.919 1.381 3.786.032.062a4.5 4.5 0 0 1-1.492.254M6.505 10c0-.652.14-1.27.39-1.83l2.143 5.875A4.5 4.5 0 0 1 6.505 10M11 5c-2.756 0-5 2.244-5 5s2.244 5 5 5 5-2.244 5-5-2.244-5-5-5"/></svg>