<svg xmlns="http://www.w3.org/2000/svg" width="16" height="16" fill="none"><g fill="#80CBC4" clip-path="url(#a)"><path fill-rule="evenodd" d="M3.2 1A2.2 2.2 0 0 0 1 3.2V11a2.2 2.2 0 0 0 2.2 2.2h2.386a6.5 6.5 0 0 1-.549-2H3.2A.2.2 0 0 1 3 11V3.2c0-.11.09-.2.2-.2h3.186l1.8 1.8h.187A6.5 6.5 0 0 1 11.5 4 6.47 6.47 0 0 1 15 5.022V5a2.2 2.2 0 0 0-2.2-2.2H9.014L7.214 1z" clip-rule="evenodd"/><path d="M13.791 13.93a4.127 4.127 0 0 1-6.416-3.43A4.127 4.127 0 0 1 11.5 6.375a4.127 4.127 0 0 1 4.125 4.125 4.12 4.12 0 0 1-1.398 3.094L10.544 8.85H9.85v3.299h.555V9.555zm-1.145-2.933.55.708V8.85h-.55z"/></g><defs><clipPath id="a"><path fill="#fff" d="M0 0h16v16H0z"/></clipPath></defs></svg>