<svg xmlns="http://www.w3.org/2000/svg" width="16" height="16" fill="none"><path fill="#80CBC4" fill-rule="evenodd" d="M3.2 1A2.2 2.2 0 0 0 1 3.2V11a2.2 2.2 0 0 0 2.2 2.2H5v-2H3.2A.2.2 0 0 1 3 11V3.2c0-.11.09-.2.2-.2h3.186l1.8 1.8H12.8c.11 0 .2.09.2.2h1c.364 0 .706.097 1 .268V5a2.2 2.2 0 0 0-2.2-2.2H9.014L7.214 1z" clip-rule="evenodd"/><rect width="8.556" height="8.556" x="6.222" y="6.222" fill="#80CBC4" opacity=".2" rx="1"/><rect width="2.444" height="2.444" x="7.444" y="7.444" fill="#80CBC4" rx="1"/><rect width="2.444" height="2.444" x="11.111" y="7.444" fill="#80CBC4" rx="1"/><rect width="2.444" height="2.444" x="11.111" y="11.111" fill="#80CBC4" rx="1"/><rect width="2.444" height="2.444" x="7.444" y="11.111" fill="#80CBC4" rx="1"/></svg>