<svg xmlns="http://www.w3.org/2000/svg" width="16" height="16" fill="none"><path fill="#80CBC4" fill-rule="evenodd" d="M3.2 1A2.2 2.2 0 0 0 1 3.2V11a2.2 2.2 0 0 0 2.2 2.2H5v-2H3.2A.2.2 0 0 1 3 11V3.2c0-.11.09-.2.2-.2h3.186l1.8 1.8H12.8c.11 0 .2.09.2.2h1c.364 0 .706.097 1 .268V5a2.2 2.2 0 0 0-2.2-2.2H9.014L7.214 1z" clip-rule="evenodd"/><mask id="a" width="10" height="8" x="6" y="6" maskUnits="userSpaceOnUse" style="mask-type:alpha"><rect width="8.654" height="7.5" x="6.673" y="6.25" fill="#00B6C2" rx=".721"/></mask><g fill="#80CBC4" mask="url(#a)"><path d="M6.673 6.25h8.654v7.5H6.673z" opacity=".15"/><path d="M13.66 9.689a1.56 1.56 0 0 0-2.33 0l-3.247 3.52c.175.08.367.124.569.124h4.759c.809 0 1.464-.71 1.464-1.587v-.74z"/><path d="M13.083 11.667h1.792v1.25c0 .23-.187.416-.417.416h-1.375zM8.612 9.167a.978.978 0 1 0 0-1.956.978.978 0 0 0 0 1.956"/></g></svg>