<svg xmlns="http://www.w3.org/2000/svg" width="16" height="16" fill="none"><path fill="#80CBC4" d="M9.015 2.8H12.8A2.2 2.2 0 0 1 15 5v.979a2.4 2.4 0 0 0-1.125-.279H13V5a.2.2 0 0 0-.2-.2H8.186L6.386 3H3.2a.2.2 0 0 0-.2.2V11c0 .11.09.2.2.2h2.684a2.4 2.4 0 0 0-.184.925v.75q.001.165.025.325H3.2A2.2 2.2 0 0 1 1 11V3.2A2.2 2.2 0 0 1 3.2 1h4.014z"/><path fill="#80CBC4" fill-rule="evenodd" d="M8.125 7C7.504 7 7 7.504 7 8.125v.75C7 9.496 7.504 10 8.125 10h5.75C14.496 10 15 9.496 15 8.875v-.75C15 7.504 14.496 7 13.875 7zM8 8.5a.5.5 0 1 0 1 0 .5.5 0 0 0-1 0m1.5 0a.5.5 0 1 0 1 0 .5.5 0 0 0-1 0" clip-rule="evenodd"/><path fill="#80CBC4" fill-rule="evenodd" d="M8.125 11C7.504 11 7 11.504 7 12.125v.75C7 13.496 7.504 14 8.125 14h5.75c.621 0 1.125-.504 1.125-1.125v-.75c0-.621-.504-1.125-1.125-1.125zM8 12.5a.5.5 0 1 0 1 0 .5.5 0 0 0-1 0m1.5 0a.5.5 0 1 0 1 0 .5.5 0 0 0-1 0" clip-rule="evenodd" opacity=".6"/></svg>