<svg xmlns="http://www.w3.org/2000/svg" width="16" height="16" fill="none"><path fill="#4A616C" d="M9.015 2.8H12.8A2.2 2.2 0 0 1 15 5v.528A6 6 0 0 0 5.925 13.2H3.2A2.2 2.2 0 0 1 1 11V3.2A2.2 2.2 0 0 1 3.2 1h4.014z"/><path fill="#82AAFF" fill-rule="evenodd" d="M7 10a4 4 0 1 1 8 0 4 4 0 0 1-8 0" clip-rule="evenodd" opacity=".5"/><path fill="#AEE33E" d="M13.266 7.296a.37.37 0 0 1-.289.075c-.556-.087-.954-.04-1.09.13-.11.137-.085.415-.062.66.031.34.07.761-.284.987-.314.2-.64.04-.879-.077-.213-.105-.416-.204-.625-.146-.263.073-.408.345-.435.398-.122.247-.074.508-.011.688.642-.127 1.189-.06 1.63.198.215.126.387.298.546.489.124.149.161.185.24.2.136.027.271-.062.479-.207.287-.2.595-.377.959-.309.385.074.691.38.932.927q.134.259.188.503a4 4 0 0 1-4.247 2.13l.122-.429c.036-.128.106-.449-.034-.658-.048-.072-.1-.102-.213-.162-.206-.108-.384-.24-.506-.444-.136-.226-.16-.466-.146-.724a.84.84 0 0 0-.034-.366c-.065-.179-.192-.3-.34-.41-.08-.068-.174-.124-.26-.186-.543-.397-.983-.995-1.324-1.763a2.3 2.3 0 0 1-.192-.524A4 4 0 0 1 11 6c1.01 0 1.932.376 2.637.994z"/></svg>