<svg xmlns="http://www.w3.org/2000/svg" width="16" height="16" fill="none"><path fill="#80CBC4" d="M9.015 2.8H12.8c1.192 0 2.16.949 2.196 2.133a1.9 1.9 0 0 0-.915-.233H8.086L6.386 3H3.2a.2.2 0 0 0-.2.2V11c0 .11.09.2.2.2h1.5v2H3.2A2.2 2.2 0 0 1 1 11V3.2A2.2 2.2 0 0 1 3.2 1h4.014zm5.287 3.336"/><path fill="#80CBC4" d="M13.995 6H6.533A.533.533 0 0 0 6 6.533v7.462a.533.533 0 0 0 .533.534h7.462a.533.533 0 0 0 .534-.534V6.533A.533.533 0 0 0 13.994 6m-6.773 6.02 1.755-1.756L7.222 8.51l.754-.754 2.509 2.51-2.51 2.508zm5.707.91h-2.665v-1.067h2.665zm0-2.133H11.33V9.731h1.6zm0-2.132h-2.665V7.6h2.665z"/></svg>