<svg xmlns="http://www.w3.org/2000/svg" width="16" height="16" fill="none"><path fill="#303236" d="M9.014 2.8H12.8A2.2 2.2 0 0 1 15 5v1.845a5.79 5.79 0 0 0-4.5-2.144c-3.2 0-5.8 2.6-5.8 5.8 0 .974.243 1.892.669 2.699h-2.17A2.2 2.2 0 0 1 1 11V3.2A2.2 2.2 0 0 1 3.2 1h4.015zm4.624 8.331-.002.006.002-.009zm-3.119-.68.018.012q.009.009.012.018.004.006.004.02l-.004.019-.012.017a.1.1 0 0 1-.018.013.05.05 0 0 1-.056-.013l-.013-.017a.05.05 0 0 1 0-.039.1.1 0 0 1 .013-.018l.017-.012a.05.05 0 0 1 .04 0m4.476-.175-.001-.007zm-.922.04v.006zm-.014-.174q.005.053.008.107-.003-.054-.008-.107m.799-.764.013.051zm-.127-.409.038.111zm-.162-.389.03.067zm-.313-.554.045.07zm-.12-.175.044.064zm-.269-.333q.029.033.056.066zm-3.183-.591.02.001zl-.184-.006zm2.374-.126.097.068zm-.175-.115.106.067zm-.394-.221q.07.034.138.07-.068-.036-.138-.07M11.3 6.073l.09.015z"/><path fill="#F69DD5" d="M11.854 10.5c0 .746-.608 1.354-1.354 1.354A1.355 1.355 0 0 1 9.146 10.5c0-.746.608-1.354 1.354-1.354s1.354.608 1.354 1.354M10.5 6A4.505 4.505 0 0 0 6 10.5c0 2.481 2.019 4.5 4.5 4.5.909 0 1.785-.27 2.535-.783l.013-.009-.607-.704-.01.006a3.56 3.56 0 0 1-1.931.568A3.58 3.58 0 0 1 6.923 10.5 3.58 3.58 0 0 1 10.5 6.923a3.582 3.582 0 0 1 3.493 4.346c-.113.464-.438.607-.682.588-.246-.02-.533-.195-.535-.623V10.5A2.28 2.28 0 0 0 10.5 8.224 2.28 2.28 0 0 0 8.224 10.5a2.28 2.28 0 0 0 3.15 2.102c.277-.115.528-.284.739-.498a1.46 1.46 0 0 0 1.245.677c.327 0 .652-.11.913-.308a1.7 1.7 0 0 0 .583-.857c.017-.057.05-.189.05-.19l.001-.005c.066-.285.095-.57.095-.921C15 8.019 12.981 6 10.5 6"/></svg>