<svg xmlns="http://www.w3.org/2000/svg" width="16" height="16" fill="none"><path fill="#80CBC4" fill-rule="evenodd" d="M3.2 1A2.2 2.2 0 0 0 1 3.2V11a2.2 2.2 0 0 0 2.2 2.2h3.382a3 3 0 0 1 .136-1.826 4 4 0 0 1-.17-.174H3.2A.2.2 0 0 1 3 11V3.2c0-.11.09-.2.2-.2h3.186L7.97 4.585q.425.076.825.215H12.8a.2.2 0 0 1 .166.088 5.5 5.5 0 0 1 1.977-.388A2.2 2.2 0 0 0 12.8 2.8H9.014L7.214 1zm10.753 11.874a1.503 1.503 0 0 0-.97-1.794.2.2 0 0 1-.183.12H8.751a1.5 1.5 0 0 0-.578 2h2.654c.11-.209.173-.447.173-.7 0 .253.063.491.173.7H12.8c.423 0 .818-.12 1.153-.326M13 6.535v4.415a2.5 2.5 0 0 0 2-2.45V6a4 4 0 0 0-2 .535" clip-rule="evenodd"/><path fill="#80CBC4" d="M11 10a4 4 0 0 0-4-4v2.5A2.5 2.5 0 0 0 9.5 11a1.5 1.5 0 1 0 1.5 1.5 1.5 1.5 0 1 0 1.5-1.5A2.5 2.5 0 0 0 15 8.5V6a4 4 0 0 0-4 4"/></svg>