<svg xmlns="http://www.w3.org/2000/svg" width="16" height="16" fill="none"><path fill="#303236" fill-rule="evenodd" d="M3.2 1A2.2 2.2 0 0 0 1 3.2V11a2.2 2.2 0 0 0 2.2 2.2h3.883l-.248-.12v-.003l-.885-.433V7.36l.88-.432L7 6.85l.238-.121.866-.425L9.74 7.52l2.926-2.782L15 5.652V5a2.2 2.2 0 0 0-2.2-2.2H9.014L7.214 1zm11.55 11.02a2.2 2.2 0 0 1-1.95 1.18h-.416l-2.546-2.414-1.877 1.395-.711-.348V8.171l.715-.35 1.878 1.396 3.12-2.967 1.786.7zm-4.255 1.18H8.77l.966-.719zM11 9.995l1.765 1.329-.001-2.648zm-2.868-.767.883.767-.882.777z" clip-rule="evenodd"/><path fill="#89DDFF" fill-rule="evenodd" d="m14.75 6.95-1.788-.7-3.119 2.967L7.965 7.82l-.714.351-.001 3.662.71.348 1.878-1.395 3.127 2.964 1.785-.697zm-1.986 1.726L11 9.995l1.765 1.329zm-4.63 2.096-.002-1.544.883.767z" clip-rule="evenodd"/></svg>